<svg width="48" height="54" viewBox="0 0 48 54" fill="none" xmlns="http://www.w3.org/2000/svg">
<g clip-path="url(#clip0_167_5)">
<g clip-path="url(#clip1_167_5)">
<g clip-path="url(#clip2_167_5)">
<path d="M24 51C37.2387 51 48 40.2387 48 27C48 13.7613 37.2387 3 24 3C10.7613 3 0 13.7613 0 27C0 40.2387 10.7613 51 24 51ZM24.7742 49.4052V47.8568C35.6748 47.4542 44.4542 38.6748 44.8568 27.7742H46.4052C46.0026 39.5419 36.5419 49.0026 24.7742 49.4052ZM24.7742 4.59484C36.5419 4.99742 46.0026 14.4581 46.4052 26.2258H44.8568C44.4542 15.3252 35.6748 6.54581 24.7742 6.14323V4.59484ZM43.3548 27C43.3548 37.6684 34.6684 46.3548 24 46.3548C13.3316 46.3548 4.64516 37.6684 4.64516 27C4.64516 16.3316 13.3316 7.64516 24 7.64516C34.6684 7.64516 43.3548 16.3316 43.3548 27ZM23.2258 4.59484V6.14323C12.3252 6.54581 3.54581 15.3252 3.14323 26.2258H1.59484C1.99742 14.4581 11.4581 4.99742 23.2258 4.59484ZM3.14323 27.7742C3.54581 38.6748 12.3252 47.4542 23.2258 47.8568V49.4052C11.4581 49.0026 1.99742 39.5419 1.59484 27.7742H3.14323Z" fill="#FFFAFE"/>
<g clip-path="url(#clip3_167_5)">
<g clip-path="url(#clip4_167_5)">
<g clip-path="url(#clip5_167_5)">
<g clip-path="url(#clip6_167_5)">
<g clip-path="url(#clip7_167_5)">
<g clip-path="url(#clip8_167_5)">
<path d="M24 34.9501C28.3907 34.9501 31.95 31.3908 31.95 27.0001C31.95 22.6094 28.3907 19.0501 24 19.0501C19.6094 19.0501 16.05 22.6094 16.05 27.0001C16.05 31.3908 19.6094 34.9501 24 34.9501Z" fill="#FFFAFE"/>
<g clip-path="url(#clip9_167_5)">
<path d="M29.467 21.7764L29.4568 21.7825C29.4451 21.736 29.3521 21.5963 28.6182 21.8868C27.8861 22.1774 28.1935 22.1757 27.9282 22.4366C27.6631 22.6971 27.6681 22.5761 27.6994 22.3566C27.7311 22.1368 27.8486 21.9677 27.867 21.8813C27.885 21.7949 27.7842 21.6022 27.4925 21.652C27.201 21.7013 27.5233 21.9536 27.55 22.2124C27.5764 22.4714 27.3473 22.6052 27.2694 22.6314C27.1911 22.6576 26.9889 22.527 26.9194 22.3755C26.8501 22.224 26.9134 22.0544 26.9948 21.7965C27.0763 21.5388 26.9084 21.3283 26.6674 21.4988C26.6674 21.4988 26.6674 21.4988 26.6379 21.6068C26.6079 21.7148 26.6761 21.8437 26.6847 22.1185C26.6932 22.3935 26.7555 22.6187 26.7538 22.7918C26.7514 22.9646 26.4185 23.0151 26.3311 22.9497C26.2434 22.8847 26.2939 22.3273 26.2534 22.1955C26.2131 22.0637 26.2075 21.7467 26.0517 21.6004C25.8954 21.4542 25.9071 21.7103 25.9361 21.9899C25.9645 22.2694 26.036 22.4411 26.1393 22.6371C26.2427 22.8328 26.0332 22.9375 25.9447 22.8651C25.8563 22.7931 25.7978 22.7486 25.6197 22.589C25.4414 22.4293 25.5988 22.3864 25.5667 22.0711C25.5342 21.7559 25.4834 21.7848 25.3325 21.7247C25.1823 21.6645 25.2543 21.9196 25.268 22.3704C25.2821 22.821 25.3541 22.6293 25.4286 22.8312C25.5035 23.0332 25.5913 23.0492 25.5035 23.0332C25.4153 23.0171 24.7667 22.4271 24.6729 22.299C24.5791 22.1711 24.3872 21.6158 24.4662 22.3886C24.5456 23.1616 26.1256 23.6835 26.1256 23.6835L29.036 22.035L26.1363 23.7753C26.1363 23.7753 26.2752 25.2059 27.1876 25.5326C28.0996 25.8592 27.4862 25.5176 27.3606 25.3993C27.2346 25.2812 26.7227 24.5656 26.7305 24.4903C26.7386 24.4151 26.7305 24.4903 26.952 24.6185C27.173 24.7466 26.9186 24.7384 27.4604 24.9029C28.0024 25.0676 28.2891 25.2119 28.2632 25.0722C28.2373 24.9322 28.2886 24.9018 27.9164 24.7684C27.5444 24.6353 27.4429 24.7454 27.3053 24.5498C27.1675 24.3537 27.132 24.2922 27.072 24.1975C27.0121 24.103 27.2048 23.9724 27.4099 24.1212C27.6147 24.27 27.8006 24.3855 28.1305 24.5034C28.4605 24.6216 28.7675 24.7182 28.639 24.5446C28.5106 24.371 28.1278 24.2583 27.9806 24.1813C27.8335 24.1041 27.1419 23.9541 27.0905 23.8627C27.0388 23.771 27.2044 23.5242 27.4143 23.5816C27.6247 23.6391 27.8783 23.7652 28.2087 23.8656C28.5392 23.9666 28.674 24.0643 28.8146 24.0775C28.9548 24.091 28.9548 24.091 28.9548 24.091C29.2507 23.9893 29.0338 23.7529 28.6959 23.7296C28.3584 23.7066 28.1327 23.699 27.9704 23.592C27.8083 23.4851 27.7137 23.2802 27.7698 23.2272C27.8259 23.1741 28.0598 23.0382 28.3655 23.1473C28.6708 23.2568 28.876 23.5987 29.0273 23.3843C29.1784 23.17 28.9763 23.0247 28.8657 23.0093C28.7553 22.9944 28.5136 23.0299 28.2374 22.9797C27.9614 22.9297 27.8132 22.8923 28.2121 22.7708C28.6111 22.6499 28.513 22.893 29.094 22.4112C29.7744 21.8474 29.467 21.7764 29.467 21.7764Z" fill="#00784A"/>
<path d="M28.9456 28.6477C28.8173 28.5793 28.665 28.5599 28.3387 28.4364C28.0128 28.3129 27.746 28.2445 27.5408 28.163C27.3362 28.081 27.2746 27.859 27.3518 27.837C27.4286 27.8152 28.0895 28.106 28.2459 28.1438C28.4019 28.1811 28.7777 28.3261 28.9506 28.3013C29.1236 28.277 28.82 28.1639 28.4883 28.0504C28.157 27.9369 27.9536 27.8991 27.7217 27.869C27.4897 27.8392 27.3648 27.6652 27.4505 27.6464C27.5357 27.6276 27.5881 27.6135 27.7767 27.582C27.9651 27.5504 28.0168 27.6644 28.3908 27.7924C28.7644 27.9205 28.7297 27.8765 28.8008 27.8151C28.8715 27.7532 28.5689 27.677 28.0349 27.4748C27.5002 27.2723 27.7278 27.4048 27.4888 27.3547C27.2497 27.3051 27.2308 27.3498 27.2497 27.3051C27.2683 27.2604 27.9652 27.1494 28.1167 27.1536C28.2683 27.1573 28.9264 27.3023 28.0101 26.9887C27.0936 26.6746 26.4808 27.3717 26.4808 27.3717L28.4388 29.865L26.4396 27.4155C26.4396 27.4155 26.0322 27.2682 25.5877 27.1735C25.5215 26.9742 25.3642 26.6556 25.1951 26.2217C24.9404 25.5698 24.9047 25.7103 24.7685 25.6126C24.7965 25.5176 24.8269 25.4242 24.8594 25.3333C25.3173 25.5264 25.9768 25.8539 26.1266 25.9676C26.3492 26.1363 26.993 27.0076 26.3761 25.675C26.1555 25.1984 25.6701 24.9031 25.1378 24.7193C25.3532 24.3467 25.6317 24.0573 25.9913 23.9175C25.9913 23.9175 25.894 23.9224 25.8089 23.7236C25.7653 23.622 25.4069 23.8572 25.0166 24.6793C24.8587 24.6304 24.6987 24.5907 24.5413 24.5583C24.5049 24.5026 24.4302 24.4162 24.2979 24.286C23.6363 23.6342 23.2757 24.286 23.2757 24.286C23.2757 24.286 23.2412 24.3885 23.2697 24.4209C23.1452 24.4188 23.0714 24.4206 23.0714 24.4206L19.8039 29.236L22.9957 24.2633C22.9957 24.2633 21.8656 21.7911 20.2974 21.7911C18.7292 21.7911 19.8626 22.0094 20.1258 22.1405C20.389 22.2717 21.6133 23.2239 21.6501 23.3635C21.6868 23.5035 21.6501 23.3635 21.2378 23.2761C20.8259 23.189 21.2104 23.0402 20.2973 23.0928C19.3844 23.1452 18.8648 23.0707 18.9936 23.3045C19.1223 23.5384 19.0662 23.6255 19.7058 23.6255C20.3453 23.6255 20.4252 23.3635 20.7565 23.6255C21.0881 23.8877 21.181 23.9751 21.331 24.106C21.4811 24.2373 21.2792 24.5946 20.8778 24.4597C20.4764 24.3247 20.1256 24.2373 19.5583 24.2373C18.9912 24.2373 18.472 24.2613 18.7753 24.4895C19.0786 24.7177 19.7207 24.6742 19.9896 24.7177C20.2581 24.7616 21.3841 24.5868 21.5199 24.7177C21.6559 24.8489 21.5687 25.397 21.2194 25.4288C20.8695 25.4603 20.4105 25.397 19.8539 25.4288C19.297 25.4603 19.0329 25.3713 18.8155 25.4379C18.5982 25.5042 18.5982 25.5042 18.5982 25.5042C18.2232 25.8755 18.6986 26.1594 19.2165 25.9848C19.7339 25.81 20.0746 25.6789 20.3847 25.7664C20.6949 25.8535 20.9684 26.1594 20.919 26.2905C20.8697 26.4217 20.6093 26.8147 20.0843 26.8147C19.5592 26.8147 19.0333 26.3341 18.9467 26.8147C18.8601 27.2952 19.2546 27.4264 19.429 27.3826C19.603 27.3389 19.9398 27.1203 20.383 27.0329C20.8259 26.9457 21.071 26.9178 20.5552 27.3903C20.0399 27.8631 20.0287 27.3649 19.4752 28.5991C18.8268 30.0452 19.3302 29.9749 19.3302 29.9749L19.3414 29.9574C19.3887 30.0334 19.6177 30.2242 20.5215 29.2336C21.4237 28.2445 20.9676 28.4444 21.1937 27.8077C21.4198 27.1715 21.4905 27.3912 21.5857 27.8042C21.6808 28.2174 21.6149 28.5957 21.644 28.7618C21.6652 28.8846 21.8205 29.0688 22.0617 29.0465L22.6863 32.0515C22.6863 32.3342 23.3539 32.5629 24.1769 32.5629C24.9998 32.5629 25.6675 32.3342 25.6675 32.0515L26.2997 29.0103C26.4246 29.0825 26.5472 29.0351 26.5597 28.9005C26.5761 28.7177 26.5784 28.592 26.6917 28.5476C26.8045 28.5032 27.0278 28.5414 27.0875 28.5975C27.148 28.6536 27.3038 28.8491 27.1918 28.9745C27.0796 29.0996 26.7088 29.0623 26.9489 29.2456C27.1891 29.4289 27.3437 29.3795 27.3576 29.3231C27.3711 29.2666 27.3253 29.1123 27.3729 28.9769C27.421 28.8418 27.4579 28.774 27.6022 29.0567C27.7466 29.34 27.4761 29.1739 28.0222 29.7237C28.5701 30.2758 28.6997 30.2495 28.7258 30.2305L28.7328 30.2395C28.7328 30.2395 29.028 30.3663 28.6214 29.6963C28.2742 29.1243 28.2771 29.3085 27.9669 29.0287C27.6569 28.7489 27.8003 28.8084 28.0609 28.9298C28.3214 29.0512 28.5224 29.2001 28.625 29.2511C28.7277 29.3026 28.9557 29.3326 28.8959 29.1357C28.8358 28.939 28.5379 29.0131 28.2314 28.908C27.9243 28.8028 27.7648 28.6039 27.7336 28.5447C27.7019 28.4861 27.8561 28.4265 28.0357 28.4562C28.2151 28.4858 28.4164 28.603 28.7222 28.7717C29.0282 28.9407 29.3006 28.9298 29.0744 28.7157C29.0741 28.7155 29.0741 28.7155 28.9456 28.6477ZM26.0932 27.9872C25.9546 28.0309 25.8439 28.078 25.7373 28.18C25.6095 28.1352 25.4664 28.0958 25.3098 28.0632C25.334 28.0464 25.361 28.0214 25.3942 27.9844C25.5306 27.8319 25.4065 27.724 25.6185 27.7339C25.8305 27.7432 25.8971 27.7509 25.9996 27.7596C26.1023 27.7682 26.2515 27.9371 26.0932 27.9872ZM25.5332 27.5008C25.398 27.5692 25.4002 27.4273 25.2336 27.6627C25.0988 27.8535 24.9746 27.9544 25.0128 28.0121C24.9108 27.9972 24.805 27.9856 24.6956 27.9766C24.6721 27.8461 24.5919 27.6491 24.4956 27.4369C24.5592 27.4195 24.6374 27.3883 24.6841 27.3817C24.7516 27.3718 25.0016 27.3757 25.2336 27.3875C25.3097 27.4299 25.3887 27.4135 25.5156 27.4188C25.5364 27.4195 25.5527 27.417 25.5668 27.4126C25.6166 27.4188 25.6535 27.4251 25.6681 27.4323C25.7511 27.4702 25.6681 27.432 25.5332 27.5008ZM24.9438 26.9483C24.9697 27.0043 24.9933 27.0518 25.0157 27.0954C24.8018 27.0894 24.6224 27.1214 24.5328 27.2217C24.5067 27.2514 24.4863 27.2757 24.4679 27.2984C24.5021 26.9222 24.5562 26.5162 24.6407 26.1188C24.8551 26.2753 24.7231 26.4709 24.9438 26.9483ZM24.302 27.0458C24.1265 26.7344 23.9456 26.5253 23.7262 26.3025C23.4459 26.0181 23.6907 25.6966 23.8687 25.769C24.046 25.8416 24.1614 25.8834 24.5262 26.0534C24.4463 26.3503 24.3704 26.6804 24.302 27.0458ZM24.6819 25.5285C24.6743 25.5193 24.6665 25.5101 24.6582 25.4994C24.4172 25.1861 24.2757 25.2136 24.4172 25.1861C24.4561 25.1785 24.5881 25.2223 24.7628 25.2931C24.7354 25.3685 24.7085 25.4466 24.6819 25.5285ZM23.4627 24.3208C23.7321 24.0722 24.14 24.4436 24.1965 24.4974C23.8453 24.4457 23.5316 24.4278 23.3252 24.4219C23.3563 24.4088 23.3997 24.3787 23.4627 24.3208ZM23.2392 25.8654C23.4118 25.9259 23.696 26.9561 23.8413 27.1661C23.9281 27.291 24.0392 27.5422 24.1834 27.759C24.1743 27.8226 24.1657 27.8893 24.1572 27.9551C23.9068 27.9555 23.6664 27.9708 23.4429 27.9984C23.3836 27.8867 23.3173 27.7519 23.2497 27.5799C23.0593 27.0932 22.8213 26.7299 22.7127 26.4193C22.6037 26.1092 23.0668 25.8049 23.2392 25.8654ZM22.0487 27.0369C22.1481 26.9395 22.5332 27.0437 22.7344 27.2704C22.8971 27.4541 22.9379 27.7156 22.9714 28.0792C22.6505 28.1521 22.389 28.2534 22.217 28.3727C22.1007 28.2555 21.9742 28.1232 21.9013 27.9662C21.6948 27.52 21.9493 27.1338 22.0487 27.0369ZM24.1767 29.4558C23.2926 29.4558 22.5326 29.2755 22.1887 29.0167C22.2392 28.998 22.2928 28.9713 22.3487 28.9331C22.5663 28.7838 22.4773 28.6437 22.318 28.4757C22.4624 28.3872 22.6742 28.2989 22.9853 28.2355C22.9888 28.2748 22.9922 28.3136 22.9956 28.3552C23.0406 28.8686 23.427 29.1381 23.675 28.6787C23.675 28.6787 23.675 28.6787 23.6495 28.466C23.638 28.3697 23.5935 28.2783 23.531 28.1621C23.7096 28.1484 23.9093 28.1415 24.1319 28.1438C24.1024 28.3822 24.0758 28.6324 24.0529 28.8951C24.0529 28.8951 24.0694 29.0983 24.4193 28.954C24.4193 28.954 24.4042 28.632 24.4177 28.15C24.9561 28.1701 25.3443 28.2306 25.6231 28.3075C25.5426 28.4106 25.51 28.4954 25.6599 28.4991C25.7601 28.502 25.8391 28.4552 25.9029 28.4035C26.1247 28.4985 26.2345 28.6016 26.288 28.6799C26.2305 28.7327 26.1858 28.7634 26.1791 28.8106C26.1682 28.885 26.1682 28.885 26.1682 28.885C26.1884 28.914 26.2098 28.9385 26.2317 28.9592C25.9294 29.2486 25.1239 29.4558 24.1767 29.4558ZM26.6876 28.2341C26.6303 28.3282 26.4981 28.4163 26.3964 28.5599C26.38 28.5828 26.3638 28.602 26.348 28.6199C26.3098 28.504 26.1948 28.3964 26.021 28.3027C26.0283 28.2968 26.0356 28.2906 26.0424 28.2866C26.1233 28.2373 26.2696 27.9092 26.3693 27.9214C26.4688 27.9334 26.7452 28.1398 26.6876 28.2341Z" fill="#00784A"/>
</g>
</g>
<path d="M12.359 21.9248C12.5177 21.983 12.6477 22.0772 12.7491 22.2071C12.8516 22.3374 12.9159 22.4958 12.9423 22.6823C12.9683 22.8698 12.9494 23.0738 12.8855 23.2944L13.5134 23.6607C13.7544 23.8025 13.8369 23.9766 13.761 24.1832C13.7196 24.2958 13.6476 24.3876 13.5449 24.4586C13.443 24.5298 13.313 24.5694 13.1544 24.5774C12.9954 24.584 12.8159 24.5505 12.6159 24.4772C12.2385 24.3386 11.9406 24.1601 11.7225 23.9415C11.5041 23.7239 11.3669 23.4881 11.3109 23.2343C11.255 22.9803 11.2722 22.73 11.363 22.4829C11.427 22.3083 11.5125 22.1712 11.6193 22.0721C11.7248 21.9734 11.8416 21.9119 11.9699 21.8874C12.0978 21.864 12.2274 21.8765 12.359 21.9248ZM12.6162 23.1396C12.7073 22.7405 12.5792 22.4771 12.2318 22.3496C12.1088 22.3044 11.9939 22.308 11.8874 22.3605C11.7807 22.413 11.6964 22.5237 11.6343 22.6929C11.564 22.8845 11.5632 23.0738 11.6319 23.261C11.7 23.4468 11.8275 23.6178 12.0143 23.7737C12.201 23.9297 12.432 24.0581 12.7071 24.159C12.8217 24.201 12.9279 24.2267 13.0257 24.2361C13.1232 24.2463 13.2035 24.2423 13.2666 24.2238C13.3286 24.2061 13.3658 24.1803 13.3782 24.1466C13.3955 24.0996 13.3445 24.041 13.2254 23.9706L12.7328 23.6843C12.6947 23.7534 12.6782 23.7836 12.6836 23.7749C12.6539 23.8268 12.6233 23.8566 12.5916 23.8641C12.5601 23.8718 12.525 23.8685 12.4865 23.8544C12.4452 23.8392 12.417 23.8155 12.4023 23.7834C12.3866 23.751 12.386 23.7146 12.4008 23.6742C12.4077 23.6555 12.4139 23.6417 12.4191 23.633C12.4431 23.5907 12.4605 23.5581 12.471 23.5353C12.3344 23.4575 12.1529 23.3514 11.9261 23.2172C11.867 23.1837 11.8311 23.1419 11.8188 23.0915C11.8061 23.042 11.8097 22.9901 11.8296 22.9356C11.852 22.8746 11.88 22.8348 11.9135 22.8161C11.9469 22.7975 11.9886 22.7973 12.0384 22.8156C12.0684 22.8267 12.0921 22.8375 12.1095 22.8482L12.6162 23.1396Z" fill="#FFFAFE"/>
<path d="M14.0954 21.1013C14.1083 21.0786 14.1284 21.0666 14.1557 21.065C14.184 21.0638 14.2164 21.0737 14.2529 21.0944C14.3216 21.1335 14.3651 21.1802 14.3837 21.2346C14.4329 21.3605 14.4623 21.4838 14.4719 21.6042C14.4806 21.7244 14.4536 21.8396 14.3906 21.95C14.3045 22.1012 14.1719 22.1742 13.9931 22.169C13.8132 22.1633 13.6143 22.0982 13.3961 21.9738C13.1858 21.854 12.9621 21.6909 12.7253 21.4845C12.488 21.2768 12.3027 21.0654 12.1697 20.8503C12.0371 20.6343 12.0125 20.4534 12.0956 20.3073C12.1427 20.2248 12.218 20.1813 12.3218 20.1773C12.4259 20.1744 12.5492 20.2136 12.6917 20.2947C12.896 20.4111 13.101 20.6028 13.307 20.8697C13.5123 21.1376 13.6922 21.4443 13.8462 21.7901C13.9236 21.818 13.9853 21.8267 14.0316 21.8162C14.0765 21.8061 14.1119 21.7784 14.1377 21.7332C14.1777 21.6629 14.1929 21.5897 14.1831 21.5139C14.1729 21.4368 14.1423 21.329 14.0912 21.1905C14.0796 21.1563 14.081 21.1266 14.0954 21.1013ZM12.3192 20.5091C12.2964 20.5491 12.3426 20.6346 12.4578 20.7659C12.5717 20.8974 12.7235 21.0422 12.9134 21.1998C13.1036 21.3588 13.2951 21.4956 13.4879 21.6099C13.356 21.3725 13.2095 21.1601 13.0479 20.9726C12.8874 20.7855 12.7238 20.6445 12.557 20.5494C12.4257 20.4747 12.3465 20.4612 12.3192 20.5091Z" fill="#FFFAFE"/>
<path d="M14.8647 21.2176C14.7927 21.3162 14.6993 21.3687 14.5844 21.3753C14.4689 21.3826 14.3525 21.3435 14.2353 21.258C14.1077 21.1648 14.0084 21.0465 13.9373 20.9029C13.8665 20.7607 13.832 20.6155 13.8338 20.467C13.8362 20.3178 13.8779 20.1877 13.9587 20.077C13.9841 20.0422 14.0076 20.0236 14.0294 20.0209C14.052 20.0188 14.084 20.0268 14.1254 20.0446C14.1437 20.0059 14.166 19.9684 14.1927 19.9321C14.2499 19.8538 14.3064 19.8349 14.3621 19.8756C14.396 19.9003 14.4671 19.9708 14.5755 20.0871C14.7332 20.2579 14.8479 20.3695 14.9199 20.422C14.9442 20.4397 14.9676 20.4475 14.9901 20.4454C15.0129 20.4447 15.0314 20.4346 15.0455 20.4153C15.0678 20.3845 15.0753 20.3337 15.0678 20.2626C15.06 20.1901 15.039 20.0848 15.0047 19.947C14.997 19.9117 15.0017 19.8823 15.0188 19.8589C15.0341 19.8379 15.0555 19.8282 15.083 19.8295C15.1112 19.8316 15.1422 19.845 15.1761 19.8697C15.2399 19.9164 15.278 19.9677 15.2904 20.0238C15.3243 20.1487 15.3426 20.2687 15.3455 20.3835C15.3476 20.4976 15.3236 20.5891 15.2735 20.6578C15.2346 20.7111 15.1809 20.7463 15.1128 20.7634C15.0449 20.7819 14.9718 20.7793 14.8935 20.7558C14.9669 20.9368 14.9573 21.0909 14.8647 21.2176ZM14.6861 20.9535C14.7114 20.9187 14.7153 20.8702 14.6976 20.8078C14.6786 20.7457 14.64 20.6823 14.5821 20.6175L14.2064 20.2059C14.1585 20.2749 14.1381 20.3554 14.1453 20.4474C14.1525 20.5393 14.1837 20.6314 14.2389 20.7237C14.2947 20.8152 14.3675 20.8936 14.4572 20.9592C14.5073 20.9958 14.5511 21.0129 14.5887 21.0106C14.6277 21.0081 14.6601 20.989 14.6861 20.9535Z" fill="#FFFAFE"/>
<path d="M15.6768 20.163C15.6243 20.2181 15.5592 20.229 15.4814 20.1963C15.4028 20.1642 15.3002 20.0877 15.1736 19.9668C14.9876 19.7894 14.8359 19.5941 14.7185 19.3809C14.6897 19.3286 14.6796 19.2782 14.6885 19.2299C14.6973 19.1829 14.7269 19.1331 14.7773 19.0803C14.8049 19.0514 14.8275 19.0343 14.8451 19.0289C14.8634 19.0242 14.8826 19.0316 14.9028 19.0509C14.9259 19.073 14.9673 19.1333 15.027 19.2315C15.0704 19.3005 15.1092 19.3598 15.1436 19.4093C15.1787 19.4594 15.2253 19.517 15.2835 19.5822C15.2046 19.4171 15.155 19.2686 15.1341 19.1367C15.1127 19.0043 15.1122 18.8939 15.1328 18.8057C15.1548 18.7175 15.1883 18.6498 15.2331 18.6029C15.3222 18.5096 15.4131 18.507 15.5057 18.5954C15.5613 18.6486 15.6471 18.7608 15.7629 18.9323C15.8618 19.0793 15.9312 19.1717 15.971 19.2096C16.0281 19.2642 16.0767 19.2705 16.1168 19.2285C16.1438 19.2003 16.1588 19.1498 16.1621 19.0769C16.1639 19.004 16.1568 18.8969 16.1408 18.7557C16.1378 18.7197 16.1466 18.6909 16.1675 18.6692C16.1847 18.651 16.2069 18.6446 16.2338 18.6497C16.2615 18.6554 16.2906 18.6728 16.3211 18.7017C16.3782 18.7563 16.4096 18.8118 16.4151 18.8682C16.4316 19.0029 16.4307 19.1292 16.4123 19.2471C16.3931 19.3643 16.3406 19.4678 16.2549 19.5575C16.1852 19.6305 16.1114 19.6659 16.0335 19.6635C15.9557 19.6596 15.8765 19.6194 15.7962 19.5426C15.7565 19.5047 15.6945 19.4261 15.6102 19.3071C15.5378 19.2033 15.4842 19.1349 15.4496 19.1019C15.4265 19.0799 15.4076 19.0764 15.393 19.0914C15.375 19.1102 15.3741 19.1598 15.3902 19.2401C15.4062 19.319 15.4367 19.4138 15.4817 19.5245C15.5274 19.6344 15.5837 19.7421 15.6504 19.8474C15.7025 19.9275 15.7305 19.9889 15.7343 20.0312C15.7382 20.075 15.719 20.1189 15.6768 20.163Z" fill="#FFFAFE"/>
<path d="M17.2239 17.8332C17.2442 17.8169 17.267 17.8133 17.2923 17.8224C17.319 17.8317 17.3456 17.8527 17.372 17.8854C17.4216 17.9469 17.4455 18.006 17.4437 18.0629C17.4434 18.198 17.4252 18.3237 17.3892 18.44C17.3526 18.5555 17.2833 18.6545 17.1813 18.7367C16.8666 18.9902 16.5311 18.8958 16.1745 18.4535C16.1199 18.3857 16.067 18.3153 16.0158 18.2423L15.926 18.3147C15.8801 18.3518 15.842 18.3683 15.8117 18.3644C15.7815 18.3605 15.7517 18.3401 15.7223 18.3036C15.6527 18.2172 15.6524 18.146 15.7217 18.0902L15.8537 17.9837C15.7433 17.7926 15.6585 17.6052 15.5993 17.4218C15.54 17.2383 15.515 17.0741 15.5243 16.9293C15.5334 16.7844 15.582 16.6766 15.6699 16.6056C15.7346 16.5536 15.8085 16.5408 15.8918 16.5677C15.9741 16.595 16.0502 16.652 16.1199 16.7384C16.3127 16.9775 16.3805 17.2664 16.3233 17.6052L16.5815 17.3972C16.6064 17.3771 16.6287 17.3681 16.6484 17.3702C16.6674 17.3715 16.6889 17.387 16.7127 17.4167C16.7987 17.5233 16.7544 17.6471 16.5801 17.7876L16.2986 18.0144C16.3575 18.0941 16.4043 18.1553 16.4388 18.1982C16.5681 18.3587 16.6775 18.456 16.767 18.4905C16.8573 18.5244 16.9433 18.5084 17.025 18.4425C17.0912 18.3891 17.1336 18.3222 17.1522 18.2417C17.1702 18.1604 17.1815 18.0516 17.1863 17.9156C17.1881 17.8794 17.2005 17.852 17.2239 17.8332ZM15.7857 16.8785C15.7631 16.8966 15.7607 16.9463 15.7784 17.027C15.7968 17.1072 15.8346 17.2091 15.8916 17.3327C15.9488 17.4561 16.019 17.5872 16.1024 17.7255C16.1301 17.5734 16.1274 17.4299 16.0943 17.2947C16.061 17.1609 16.0121 17.054 15.9473 16.9737C15.8738 16.8827 15.8199 16.8509 15.7857 16.8785Z" fill="#FFFAFE"/>
<path d="M19.0482 17.5643C18.945 17.615 18.8238 17.6633 18.6848 17.7092C18.6095 17.735 18.5514 17.7407 18.5109 17.726C18.4707 17.7101 18.4368 17.6693 18.4092 17.6037C18.3354 17.4216 18.258 17.1899 18.1767 16.9089C18.0965 16.6274 18.0302 16.3502 17.9777 16.0773C17.9687 16.0272 17.9781 15.984 18.0062 15.948C18.0351 15.9116 18.0797 15.8786 18.1397 15.8492C18.2483 15.7959 18.3176 15.7997 18.3476 15.8607C18.3594 15.885 18.368 15.9159 18.3731 15.9536C18.396 16.1184 18.4434 16.3319 18.5153 16.5941C18.5867 16.8554 18.6656 17.0991 18.7521 17.3252C18.8078 17.3046 18.8693 17.2778 18.9365 17.2446C19.248 17.0918 19.4343 16.8833 19.4954 16.6194C19.5569 16.3565 19.5102 16.0673 19.3556 15.7521C19.2521 15.5411 19.1117 15.4073 18.9345 15.3504C18.7565 15.294 18.5574 15.3198 18.3374 15.4278C18.1946 15.4979 18.0647 15.5895 17.9475 15.7028C17.829 15.8156 17.732 15.9356 17.6564 16.0629C17.6409 16.0905 17.6198 16.1109 17.5928 16.1241C17.5631 16.1387 17.5332 16.1378 17.5029 16.1216C17.4722 16.1043 17.4476 16.0769 17.4291 16.0391C17.4084 15.9969 17.3984 15.9584 17.399 15.9234C17.3997 15.8885 17.4111 15.8517 17.4335 15.813C17.5155 15.6692 17.6283 15.5346 17.7719 15.4095C17.9159 15.2853 18.0644 15.1857 18.2169 15.1109C18.4343 15.0042 18.6404 14.9498 18.8355 14.9478C19.0305 14.9457 19.2065 14.9964 19.3631 15.0999C19.5203 15.2045 19.6493 15.3594 19.7502 15.5652C19.8819 15.8337 19.9436 16.0943 19.9349 16.3469C19.9268 16.5983 19.8474 16.8293 19.697 17.0403C19.5464 17.2512 19.3302 17.4258 19.0482 17.5643Z" fill="#FFFAFE"/>
<path d="M20.9415 16.7653C20.8238 16.7974 20.718 16.7802 20.6241 16.7134C20.5293 16.647 20.4627 16.5439 20.4246 16.404C20.3831 16.2516 20.3792 16.0971 20.4132 15.9406C20.4465 15.7854 20.5103 15.6502 20.6043 15.5353C20.6994 15.4203 20.813 15.3447 20.9453 15.3085C20.9868 15.2973 21.0168 15.2973 21.0356 15.3088C21.0545 15.3213 21.0746 15.3474 21.0957 15.3873C21.1341 15.3685 21.1751 15.3532 21.2186 15.3412C21.3122 15.3157 21.3681 15.3361 21.3863 15.4029C21.3974 15.4434 21.4089 15.5428 21.4211 15.7012C21.4377 15.9331 21.4577 16.092 21.4811 16.1779C21.489 16.2069 21.5024 16.2276 21.5214 16.24C21.5397 16.2537 21.5604 16.2574 21.5835 16.251C21.6201 16.2409 21.6578 16.2058 21.6962 16.1457C21.7353 16.0842 21.7845 15.9888 21.8438 15.8596C21.8598 15.8272 21.8819 15.8073 21.9098 15.7996C21.9348 15.7927 21.9576 15.7984 21.9782 15.8167C21.999 15.8359 22.0149 15.8658 22.026 15.9063C22.0469 15.9825 22.0446 16.0464 22.0191 16.098C21.9675 16.2168 21.9071 16.3219 21.8378 16.4134C21.7682 16.504 21.6923 16.5604 21.6102 16.5828C21.5465 16.6002 21.4827 16.5942 21.4188 16.5651C21.3542 16.5372 21.2987 16.4895 21.2523 16.4223C21.1967 16.6096 21.093 16.7239 20.9415 16.7653ZM20.9667 16.4473C21.0083 16.4361 21.0416 16.4005 21.0668 16.3407C21.0908 16.2802 21.1002 16.2066 21.0951 16.1199L21.0585 15.5638C20.978 15.5878 20.9118 15.6381 20.8601 15.7144C20.8083 15.7908 20.7752 15.8823 20.7608 15.9888C20.7473 16.0951 20.7552 16.2018 20.7843 16.309C20.8007 16.3689 20.8242 16.4095 20.855 16.4311C20.8869 16.4535 20.9243 16.4589 20.9667 16.4473Z" fill="#FFFAFE"/>
<path d="M23.6057 15.5869C23.6315 15.5835 23.6532 15.5923 23.6711 15.6132C23.6891 15.6351 23.7008 15.6667 23.7063 15.7084C23.7167 15.7867 23.7057 15.8497 23.6736 15.8973C23.6061 16.006 23.529 16.1019 23.442 16.185C23.3549 16.267 23.2643 16.3143 23.1701 16.3266C23.0213 16.3461 22.8959 16.2738 22.7936 16.1097C22.7249 16.2246 22.6622 16.3035 22.6052 16.3462C22.5483 16.39 22.4783 16.4173 22.395 16.4283C22.2761 16.4439 22.1715 16.4122 22.0814 16.3333C21.9923 16.2543 21.9383 16.1428 21.9195 15.999C21.899 15.8422 21.9135 15.6921 21.9632 15.5482C22.0121 15.4056 22.0893 15.2839 22.1952 15.1834C22.3001 15.0829 22.4243 15.0151 22.5681 14.9802C22.5558 14.5944 22.584 14.2599 22.6527 13.9764C22.7223 13.6918 22.8429 13.5384 23.0144 13.5157C23.0987 13.5046 23.1737 13.5342 23.2394 13.6042C23.3049 13.6732 23.3478 13.7851 23.3682 13.9399C23.3972 14.1601 23.3774 14.4244 23.309 14.7331C23.2395 15.0418 23.1348 15.3628 22.9949 15.6958C23.0178 15.8088 23.0454 15.8884 23.0777 15.9346C23.1108 15.9798 23.1482 15.9996 23.19 15.994C23.2425 15.9871 23.2931 15.9568 23.3414 15.903C23.3907 15.8481 23.4542 15.7596 23.532 15.6375C23.5523 15.6076 23.5769 15.5907 23.6057 15.5869ZM23.0196 13.8087C22.982 13.8136 22.9535 13.8849 22.9341 14.0226C22.9139 14.1604 22.9044 14.3377 22.9056 14.5545C22.907 14.7723 22.9176 14.9988 22.9374 15.2343C23.0937 14.7265 23.1528 14.3274 23.1146 14.0368C23.1047 13.9615 23.0906 13.9042 23.0724 13.8652C23.055 13.8252 23.0375 13.8063 23.0196 13.8087ZM22.4601 16.117C22.4969 16.1122 22.532 16.092 22.5656 16.0563C22.5993 16.0216 22.6391 15.9589 22.6847 15.8682C22.6511 15.7657 22.6256 15.6484 22.6082 15.5166C22.6019 15.469 22.5939 15.3924 22.5842 15.2868C22.4804 15.3337 22.4001 15.4174 22.3431 15.5377C22.2863 15.6582 22.2668 15.7858 22.2845 15.9207C22.3034 16.0645 22.3619 16.1299 22.4601 16.117Z" fill="#FFFAFE"/>
<path d="M25.2888 16.3459C25.1745 16.3332 25.0464 16.3089 24.9045 16.273C24.8271 16.2544 24.7752 16.228 24.7487 16.1938C24.7233 16.1589 24.7166 16.1062 24.7286 16.036C24.7641 15.8427 24.8232 15.6057 24.9056 15.325C24.9891 15.0445 25.082 14.775 25.1841 14.5167C25.2035 14.4696 25.2347 14.4382 25.2776 14.4229C25.3215 14.4076 25.3769 14.4037 25.4435 14.4112C25.5638 14.4246 25.6202 14.4651 25.6127 14.5326C25.6097 14.5594 25.6002 14.59 25.5843 14.6245C25.5152 14.7759 25.4405 14.9814 25.3602 15.2412C25.2801 15.4999 25.2159 15.7479 25.1675 15.9852C25.2255 15.9976 25.2917 16.008 25.3662 16.0164C25.7112 16.0548 25.9803 15.9789 26.1735 15.789C26.3666 15.6001 26.4825 15.3312 26.5212 14.9823C26.5472 14.7487 26.5007 14.5603 26.3817 14.4174C26.2617 14.2743 26.0801 14.1891 25.8365 14.1619C25.6784 14.1444 25.5195 14.1519 25.3599 14.1846C25.1994 14.2161 25.053 14.2653 24.9209 14.332C24.893 14.347 24.8642 14.3529 24.8345 14.3496C24.8016 14.346 24.7769 14.329 24.7601 14.299C24.7434 14.268 24.7374 14.2315 24.7419 14.1898C24.7472 14.1432 24.7593 14.1052 24.7787 14.0761C24.798 14.047 24.8274 14.0221 24.867 14.0014C25.0134 13.9242 25.1808 13.8712 25.3692 13.8429C25.5575 13.8154 25.7361 13.8112 25.905 13.83C26.1456 13.8567 26.3487 13.9216 26.5145 14.0245C26.6802 14.1274 26.8013 14.2647 26.8778 14.4361C26.9543 14.6086 26.9798 14.8087 26.9546 15.0364C26.9216 15.3337 26.8335 15.5866 26.6906 15.7951C26.5487 16.0027 26.3577 16.1551 26.1174 16.2523C25.8771 16.3494 25.601 16.3806 25.2888 16.3459Z" fill="#FFFAFE"/>
<path d="M27.8205 15.159C27.7406 15.1365 27.6861 15.1009 27.6573 15.0523C27.6272 15.0043 27.6215 14.9467 27.6404 14.8792C27.659 14.8128 27.7005 14.7648 27.765 14.7351C27.8307 14.7046 27.9026 14.7004 27.9806 14.7223C28.0509 14.7421 28.1033 14.7754 28.1379 14.8227C28.1718 14.8686 28.1798 14.9233 28.1619 14.9868C28.1406 15.0628 28.0991 15.1161 28.0376 15.1467C27.9747 15.1779 27.9024 15.1819 27.8205 15.159ZM27.3662 16.6879C27.2429 16.6533 27.1652 16.5841 27.1329 16.4806C27.1017 16.3773 27.1065 16.2529 27.1473 16.1074C27.1715 16.0218 27.2133 15.9151 27.273 15.7875C27.333 15.6589 27.3963 15.541 27.4628 15.4341C27.4971 15.3783 27.5321 15.3429 27.5673 15.3279C27.6015 15.3136 27.6503 15.3153 27.714 15.3331C27.8112 15.3604 27.8508 15.4063 27.8327 15.471C27.8195 15.5182 27.77 15.6238 27.6845 15.7878C27.5805 15.984 27.5181 16.1193 27.4973 16.1934C27.4811 16.2511 27.476 16.297 27.482 16.3308C27.4887 16.3659 27.5103 16.3887 27.5471 16.399C27.5808 16.4085 27.6303 16.3969 27.6954 16.3644C27.7599 16.3306 27.8496 16.2742 27.9642 16.1952C27.9947 16.1757 28.0242 16.17 28.0532 16.1781C28.0782 16.1851 28.0944 16.2016 28.1016 16.2276C28.1096 16.2547 28.1079 16.2885 28.0965 16.329C28.0752 16.405 28.0409 16.4587 27.9936 16.4901C27.74 16.6681 27.5309 16.7341 27.3662 16.6879Z" fill="#FFFAFE"/>
<path d="M28.3112 17.0893C28.2155 17.0512 28.1511 17.0004 28.1184 16.9366C28.0851 16.8717 28.0793 16.8118 28.1012 16.7569C28.1201 16.7095 28.1541 16.6752 28.2035 16.654C28.2528 16.6327 28.3115 16.6356 28.3793 16.6626C28.4034 16.6722 28.4304 16.6857 28.4601 16.7029C28.4909 16.7205 28.5141 16.7335 28.5302 16.7421C28.5471 16.6939 28.5545 16.6446 28.5519 16.594C28.5491 16.5444 28.5407 16.4937 28.5269 16.4421C28.5137 16.3915 28.4999 16.3462 28.4858 16.3062C28.3859 16.3923 28.2932 16.4599 28.208 16.5088C28.1237 16.5582 28.0359 16.6018 27.9444 16.6396C27.8976 16.6597 27.8556 16.6624 27.8184 16.6477C27.7896 16.6363 27.7701 16.6161 27.7601 16.5873C27.7496 16.5594 27.7506 16.5297 27.7634 16.4982C27.7782 16.461 27.8046 16.4323 27.8429 16.4119L27.8969 16.3818C28.0481 16.2966 28.1654 16.2238 28.2486 16.1634C28.3013 16.123 28.3664 16.0665 28.4436 15.9939C28.5219 15.9217 28.6001 15.8457 28.6782 15.7659C28.7457 15.6991 28.8348 15.6877 28.9452 15.7317C28.9964 15.7521 29.0303 15.771 29.0471 15.7884C29.0639 15.8058 29.0684 15.8242 29.0606 15.8437C29.0561 15.8548 29.0454 15.871 29.0283 15.8923C29.0112 15.9135 28.9916 15.9331 28.9694 15.9511C28.9092 16.0047 28.8702 16.0543 28.8521 16.0999C28.841 16.1278 28.8386 16.1623 28.8447 16.2036C28.8513 16.2439 28.8645 16.297 28.8845 16.3632C28.9133 16.464 28.9317 16.5472 28.9401 16.6129C28.949 16.68 28.9406 16.7455 28.9151 16.8097C28.9077 16.8283 28.8956 16.8531 28.8789 16.8841C28.9827 16.8856 29.1257 16.8349 29.3078 16.7319C29.3391 16.7152 29.3688 16.7125 29.3966 16.7236C29.4207 16.7332 29.4356 16.7515 29.441 16.7784C29.4461 16.8063 29.4408 16.8397 29.4252 16.8787C29.3975 16.9485 29.3573 16.9981 29.3046 17.0277C29.1671 17.1054 29.0483 17.1484 28.9479 17.157C28.848 17.1646 28.7355 17.1456 28.6104 17.1003C28.5122 17.1333 28.4124 17.1297 28.3112 17.0893Z" fill="#FFFAFE"/>
<path d="M30.7916 17.5222C30.8142 17.5351 30.8262 17.5552 30.8279 17.5827C30.8282 17.6104 30.8178 17.6427 30.7971 17.6791C30.758 17.7478 30.7116 17.7916 30.6582 17.8107C30.5324 17.8597 30.41 17.8896 30.2912 17.9001C30.1728 17.9097 30.0593 17.8836 29.9507 17.8216C29.8595 17.7696 29.8041 17.6949 29.7849 17.5975C29.6505 17.605 29.5295 17.5791 29.4216 17.5198C29.2106 17.8393 29.0016 18.0876 28.7948 18.2644C28.5884 18.4426 28.4087 18.4881 28.2558 18.4008C28.1628 18.3478 28.1135 18.2748 28.1079 18.1818C28.1009 18.0891 28.131 17.9836 28.1985 17.8654C28.2947 17.6968 28.446 17.5224 28.6524 17.3419C28.8576 17.1619 29.118 16.9828 29.4338 16.8049C29.577 16.5538 29.6748 16.3782 29.7275 16.278C29.754 16.2274 29.796 16.1991 29.8538 16.1928C29.9118 16.1878 29.9717 16.203 30.0333 16.2382C30.0698 16.2591 30.0917 16.2813 30.0989 16.305C30.1074 16.3282 30.1002 16.3621 30.0773 16.4067C30.053 16.4493 30.0357 16.4815 30.0255 16.5033C30.1194 16.4659 30.2019 16.4473 30.2732 16.4476C30.3431 16.4484 30.4079 16.4658 30.4679 16.5C30.5643 16.555 30.6213 16.6387 30.6389 16.7512C30.6555 16.8633 30.6282 16.9818 30.557 17.1069C30.5049 17.1981 30.4397 17.2783 30.3611 17.3475C30.2834 17.4171 30.1983 17.4723 30.1061 17.5129C30.1367 17.5441 30.1637 17.5665 30.1871 17.5798C30.2444 17.6125 30.3104 17.623 30.3849 17.6116C30.4608 17.5996 30.5667 17.5684 30.7025 17.518C30.7358 17.506 30.7656 17.5074 30.7916 17.5222ZM29.5758 17.2797C29.6454 17.301 29.7221 17.2998 29.8059 17.2761C29.8893 17.251 29.9694 17.2075 30.0462 17.1454C30.1223 17.0829 30.1853 17.0077 30.2352 16.92C30.2645 16.8687 30.2768 16.824 30.2721 16.7856C30.2661 16.7476 30.2457 16.7187 30.2111 16.6989C30.1494 16.6636 30.0375 16.6863 29.8754 16.7665C29.8305 16.8411 29.7665 16.9515 29.6832 17.0974C29.6381 17.1765 29.6024 17.2372 29.5758 17.2797ZM28.4208 18.1599C28.4678 18.1866 28.5641 18.1075 28.71 17.9224C28.8567 17.7378 29.0202 17.4976 29.2004 17.202C29.0285 17.3319 28.8761 17.4627 28.7435 17.5942C28.6118 17.7264 28.5153 17.8458 28.4544 17.9527C28.4232 18.0075 28.4052 18.0531 28.4006 18.0895C28.3968 18.1264 28.4036 18.15 28.4208 18.1599Z" fill="#FFFAFE"/>
<path d="M31.8987 18.286C31.9199 18.3012 31.9295 18.3222 31.9274 18.349C31.9256 18.3772 31.9125 18.4084 31.8881 18.4426C31.842 18.5068 31.7915 18.5457 31.7363 18.559C31.6242 18.5883 31.4921 18.595 31.3397 18.5793C31.187 18.5622 31.049 18.5094 30.9254 18.4209C30.7563 18.2997 30.6579 18.1597 30.6302 18.0007C30.6026 17.8419 30.6458 17.6827 30.7599 17.5234C30.8391 17.4129 30.9368 17.3265 31.0527 17.2644C31.1678 17.2017 31.2869 17.172 31.41 17.1753C31.5332 17.1786 31.6472 17.2179 31.752 17.293C31.8447 17.3595 31.8996 17.4406 31.917 17.5368C31.9335 17.6323 31.9077 17.7276 31.8395 17.8227C31.7597 17.9341 31.6514 18.001 31.5146 18.0235C31.3778 18.046 31.1976 18.0124 30.9743 17.9224C30.962 18.0255 31.0122 18.1176 31.1252 18.1986C31.1975 18.2505 31.2977 18.2841 31.4258 18.2995C31.5552 18.3147 31.683 18.3055 31.8093 18.2716C31.8446 18.2637 31.8744 18.2686 31.8987 18.286ZM31.541 17.4999C31.4816 17.4573 31.4064 17.4558 31.3155 17.4951C31.2254 17.535 31.145 17.6043 31.0745 17.7027L31.071 17.7075C31.1825 17.7529 31.2818 17.7723 31.3688 17.7658C31.4553 17.7601 31.5198 17.7276 31.5624 17.6683C31.5846 17.6374 31.5938 17.6065 31.5902 17.5756C31.5867 17.5461 31.5704 17.5209 31.541 17.4999Z" fill="#FFFAFE"/>
<path d="M31.6071 18.9492C31.5512 18.8978 31.5389 18.8328 31.5704 18.7544C31.6011 18.6752 31.6757 18.5712 31.7943 18.4425C31.9685 18.2534 32.1609 18.0981 32.3717 17.9768C32.4236 17.9471 32.4737 17.9361 32.5223 17.9441C32.5694 17.952 32.6198 17.9807 32.6733 18.0302C32.7027 18.0573 32.7203 18.0795 32.726 18.0969C32.7309 18.1151 32.724 18.1346 32.7051 18.1551C32.6835 18.1787 32.624 18.2211 32.5266 18.2826C32.4584 18.3272 32.3999 18.3672 32.3511 18.4023C32.3016 18.4383 32.2449 18.486 32.1807 18.5454C32.3444 18.4637 32.492 18.4112 32.6234 18.3879C32.7555 18.3641 32.8658 18.3615 32.9544 18.3806C33.0431 18.401 33.1113 18.4332 33.159 18.4772C33.254 18.5646 33.258 18.6554 33.1715 18.7496C33.1193 18.8063 33.0086 18.894 32.8394 19.0128C32.6942 19.1144 32.603 19.1855 32.5658 19.226C32.5122 19.2842 32.5068 19.3328 32.5496 19.3721C32.5782 19.3985 32.6291 19.4127 32.7021 19.4147C32.775 19.4151 32.882 19.4061 33.0227 19.3875C33.0587 19.3839 33.0876 19.3923 33.1097 19.4126C33.1281 19.4295 33.135 19.4516 33.1305 19.4786C33.1253 19.5063 33.1085 19.5357 33.08 19.5668C33.0264 19.625 32.9715 19.6572 32.9153 19.6638C32.7809 19.6829 32.6546 19.6842 32.5364 19.6679C32.4189 19.6508 32.3145 19.6002 32.2232 19.5162C32.1488 19.4478 32.1122 19.3746 32.1132 19.2968C32.1156 19.2188 32.1545 19.139 32.2296 19.0572C32.2668 19.0167 32.3442 18.9534 32.4617 18.8672C32.5641 18.7929 32.6315 18.738 32.664 18.7026C32.6856 18.6791 32.6888 18.6602 32.6735 18.6459C32.6543 18.6284 32.6048 18.6282 32.5247 18.6458C32.4461 18.6632 32.3519 18.6954 32.2421 18.7424C32.1329 18.7901 32.0264 18.8483 31.9223 18.9171C31.8431 18.9707 31.7823 18.9998 31.74 19.0043C31.6964 19.0089 31.652 18.9906 31.6071 18.9492Z" fill="#FFFAFE"/>
<path d="M32.8947 20.3355C32.829 20.2561 32.7972 20.1805 32.7988 20.1091C32.8008 20.0361 32.8245 19.9809 32.8699 19.9432C32.9092 19.9107 32.9557 19.897 33.0093 19.902C33.0628 19.9071 33.1128 19.9377 33.1593 19.9941C33.1758 20.0142 33.193 20.0388 33.2109 20.0682C33.2293 20.0983 33.2436 20.121 33.2535 20.1361C33.2916 20.1021 33.3216 20.0623 33.3436 20.0169C33.3649 19.972 33.382 19.9236 33.3946 19.8714C33.4072 19.8207 33.417 19.7743 33.4239 19.7325C33.2949 19.7601 33.1812 19.7748 33.0829 19.7769C32.9853 19.7797 32.8873 19.7757 32.7888 19.765C32.7381 19.7602 32.7 19.7424 32.6745 19.7115C32.6547 19.6876 32.6473 19.6606 32.6524 19.6306C32.6566 19.6012 32.6718 19.5756 32.698 19.554C32.7289 19.5285 32.766 19.516 32.8092 19.5165L32.871 19.516C33.0445 19.5141 33.1824 19.5064 33.2845 19.4934C33.3501 19.4833 33.4342 19.4649 33.537 19.4383C33.6403 19.4125 33.7453 19.3834 33.8521 19.351C33.9435 19.3249 34.027 19.3576 34.1029 19.4494C34.138 19.4919 34.1587 19.5247 34.1649 19.548C34.1712 19.5714 34.1662 19.5897 34.1502 19.603C34.1409 19.6107 34.1238 19.6197 34.0986 19.6302C34.0734 19.6405 34.0468 19.6483 34.0185 19.6534C33.94 19.6716 33.882 19.6963 33.8442 19.7275C33.8211 19.7466 33.8023 19.7758 33.7879 19.815C33.7743 19.8535 33.7605 19.9065 33.7462 19.974C33.723 20.0763 33.6993 20.1582 33.675 20.2198C33.6505 20.2828 33.6117 20.3364 33.5586 20.3803C33.5431 20.3931 33.5206 20.4091 33.4911 20.4283C33.5814 20.4795 33.7312 20.5036 33.9403 20.5008C33.9757 20.5012 34.003 20.5131 34.0222 20.5362C34.0387 20.5563 34.0429 20.5794 34.0348 20.6056C34.0258 20.6325 34.0053 20.6593 33.9729 20.686C33.9151 20.7339 33.8559 20.758 33.7954 20.7588C33.6375 20.7609 33.5125 20.7415 33.4206 20.7009C33.3292 20.6595 33.2397 20.5888 33.1518 20.4889C33.0498 20.4708 32.964 20.4196 32.8947 20.3355Z" fill="#FFFAFE"/>
<path d="M33.6623 21.2278C33.5963 21.1252 33.581 21.019 33.6164 20.9095C33.6512 20.7991 33.7296 20.7046 33.8516 20.6262C33.9845 20.5407 34.1307 20.4907 34.2902 20.4762C34.4483 20.4613 34.5963 20.4814 34.7342 20.5368C34.8725 20.5929 34.9788 20.6785 35.0529 20.7937C35.0762 20.8299 35.0852 20.8587 35.0798 20.88C35.0736 20.9017 35.0547 20.9289 35.0231 20.961C35.0525 20.992 35.0795 21.0264 35.1038 21.0643C35.1563 21.1459 35.1534 21.2053 35.0954 21.2427C35.06 21.2653 34.9686 21.3063 34.8212 21.3655C34.605 21.451 34.4595 21.5179 34.3847 21.5659C34.3595 21.5821 34.3437 21.6012 34.3376 21.6231C34.3301 21.6445 34.3328 21.6654 34.3457 21.6856C34.3662 21.7176 34.4111 21.7429 34.4801 21.7615C34.5506 21.7804 34.6562 21.7987 34.7972 21.8163C34.8329 21.8218 34.8585 21.8368 34.8743 21.8613C34.8884 21.8832 34.8897 21.9066 34.8785 21.9316C34.8663 21.9573 34.8426 21.9814 34.8074 22.0041C34.7409 22.0468 34.6793 22.0638 34.6226 22.0552C34.4937 22.0417 34.3754 22.0156 34.2672 21.9769C34.16 21.9378 34.0833 21.8823 34.0373 21.8109C34.0016 21.7554 33.9881 21.6927 33.9966 21.6229C34.0038 21.5529 34.0326 21.4857 34.0829 21.4212C33.8874 21.4243 33.7473 21.3598 33.6623 21.2278ZM33.9732 21.1564C33.9965 21.1926 34.0404 21.2137 34.1049 21.2197C34.1697 21.2244 34.2428 21.2113 34.3241 21.1804L34.8434 20.9784C34.7963 20.9088 34.7285 20.8608 34.6401 20.8344C34.5518 20.808 34.4546 20.8039 34.3487 20.8221C34.2432 20.8411 34.1438 20.8807 34.0503 20.9407C33.9981 20.9743 33.9663 21.009 33.9551 21.045C33.9434 21.0822 33.9494 21.1195 33.9732 21.1564Z" fill="#FFFAFE"/>
<path d="M34.3557 22.3673C34.3232 22.2986 34.3361 22.2338 34.3944 22.1729C34.4525 22.1109 34.5606 22.0424 34.7187 21.9672C34.9509 21.857 35.1875 21.785 35.4284 21.7514C35.4876 21.7431 35.5382 21.7518 35.5802 21.7772C35.6208 21.8022 35.6568 21.8477 35.6882 21.9135C35.7053 21.9497 35.7134 21.9768 35.712 21.9953C35.7099 22.014 35.6961 22.0295 35.6709 22.0415C35.642 22.0553 35.571 22.0724 35.4578 22.0928C35.3778 22.1087 35.3087 22.1238 35.2502 22.1384C35.1908 22.1532 35.1203 22.1763 35.0387 22.2072C35.2211 22.1925 35.3775 22.199 35.5082 22.2267C35.6396 22.254 35.7429 22.293 35.8178 22.3437C35.8923 22.3958 35.9436 22.4511 35.9715 22.5098C36.0269 22.6263 35.9967 22.7121 35.8811 22.767C35.8575 22.7781 35.7972 22.7969 35.7002 22.8231C35.6219 22.8426 35.5737 22.8566 35.5557 22.8653C35.4933 22.8948 35.4728 22.9319 35.4938 22.9761C35.5178 23.0267 35.5878 23.0726 35.7038 23.1138C35.7384 23.1261 35.7615 23.1446 35.7731 23.1689C35.7842 23.1924 35.7827 23.2158 35.7683 23.2392C35.7539 23.2626 35.7296 23.2826 35.6954 23.2989C35.6294 23.3303 35.5694 23.3367 35.5151 23.3181C35.439 23.2934 35.3669 23.2556 35.2986 23.205C35.2298 23.1558 35.1776 23.0936 35.1419 23.0187C35.0969 22.9239 35.0871 22.8405 35.1128 22.7684C35.1371 22.6959 35.1903 22.6401 35.2724 22.6011C35.2995 22.5882 35.3274 22.5783 35.3562 22.5713C35.394 22.5578 35.4194 22.5479 35.432 22.542C35.4609 22.5282 35.4707 22.5114 35.4612 22.4915C35.4488 22.4652 35.4018 22.4444 35.3202 22.4289C35.24 22.4139 35.1404 22.4081 35.0213 22.4115C34.9026 22.4159 34.7822 22.4304 34.6599 22.4553C34.5665 22.4754 34.4993 22.4796 34.4583 22.4681C34.416 22.4561 34.3818 22.4225 34.3557 22.3673Z" fill="#FFFAFE"/>
<path d="M35.9805 24.7219C35.9885 24.7467 35.9834 24.7699 35.9652 24.7914C35.946 24.8133 35.9183 24.8301 35.8821 24.8418C35.8392 24.8556 35.8034 24.8598 35.7743 24.8545C35.7452 24.8491 35.7171 24.8352 35.6897 24.8122L35.1495 24.3873C34.7361 24.4414 34.3994 24.4464 34.1391 24.4018C33.8783 24.3586 33.7191 24.2475 33.6615 24.0685C33.6306 23.9724 33.6353 23.8842 33.6756 23.8039C33.7154 23.7249 33.7833 23.67 33.8795 23.6389C33.968 23.6104 34.065 23.6017 34.1706 23.6131C34.2759 23.6233 34.4063 23.6644 34.5618 23.7363C34.7163 23.8084 34.9037 23.9205 35.1239 24.0724L35.1909 24.0603C35.2644 24.0502 35.3691 24.0328 35.505 24.0081C35.3579 24.0144 35.2376 23.9949 35.1441 23.9493C35.0519 23.9043 34.9937 23.8443 34.9695 23.769C34.9422 23.6842 34.9589 23.6022 35.0195 23.5228C35.0804 23.4444 35.1695 23.3863 35.2865 23.3485C35.4284 23.3029 35.561 23.2707 35.6843 23.2522C35.8085 23.2333 35.9436 23.2239 36.0897 23.2242C36.152 23.2251 36.201 23.2387 36.2369 23.265C36.2714 23.2906 36.3005 23.3401 36.324 23.4135C36.3375 23.4553 36.3407 23.4864 36.3335 23.5066C36.3254 23.5272 36.308 23.5416 36.2813 23.5501C36.266 23.5551 36.2117 23.5609 36.1184 23.568C36.0428 23.5713 35.9745 23.5764 35.9138 23.5834C35.8317 23.593 35.7537 23.6034 35.6795 23.6146C35.6057 23.6268 35.5458 23.6403 35.5002 23.655C35.4288 23.6779 35.3994 23.709 35.4119 23.748C35.421 23.7765 35.4609 23.8026 35.5316 23.8261C35.6015 23.8509 35.7018 23.8686 35.8323 23.8791C35.9622 23.8909 36.1187 23.892 36.3015 23.8825C36.3626 23.8797 36.4106 23.89 36.4455 23.9134C36.4791 23.9362 36.506 23.9791 36.5262 24.042C36.54 24.0849 36.5444 24.1165 36.5394 24.1369C36.5336 24.1578 36.5172 24.1725 36.4907 24.181C36.4431 24.1963 36.2727 24.2238 35.9796 24.2635L35.502 24.3369C35.658 24.4464 35.8035 24.5556 35.9385 24.6645C35.9607 24.6846 35.9748 24.7038 35.9805 24.7219ZM33.9453 24.0102C33.9606 24.0577 34.0323 24.093 34.1607 24.1159C34.2893 24.1398 34.49 24.1398 34.7628 24.1161C34.5944 24.0106 34.4492 23.9412 34.3269 23.9079C34.2051 23.8756 34.1067 23.8716 34.0316 23.8959C33.9992 23.9062 33.9746 23.9211 33.9575 23.9401C33.9405 23.9592 33.9365 23.9826 33.9453 24.0102Z" fill="#FFFAFE"/>
<path d="M11.7995 27.7431C11.7995 27.5664 11.9427 27.4231 12.1194 27.4231C12.2961 27.4231 12.4394 27.5664 12.4394 27.7431C12.4394 27.9198 12.2961 28.063 12.1194 28.063C11.9427 28.063 11.7995 27.9198 11.7995 27.7431Z" fill="#FFFAFE"/>
<path d="M36.0811 27.7431C36.0811 27.5664 36.2244 27.4231 36.4011 27.4231C36.5778 27.4231 36.721 27.5664 36.7212 27.7431C36.7212 27.9198 36.5779 28.063 36.4011 28.063C36.2244 28.063 36.0811 27.9198 36.0811 27.7431Z" fill="#FFFAFE"/>
<path d="M12.1979 31.6147C12.1896 31.59 12.1884 31.5657 12.1941 31.5417C12.1998 31.5177 12.2132 31.4989 12.234 31.4857C12.3147 31.4272 12.4511 31.3398 12.6432 31.2232C12.611 31.2435 12.6842 31.1991 12.863 31.09C12.995 31.0083 13.1564 30.9007 13.3472 30.7678C13.3569 30.7624 13.3671 30.7581 13.3775 30.7545C13.3965 30.7482 13.4144 30.7497 13.4312 30.7588C13.4483 30.769 13.4609 30.7864 13.4691 30.811C13.4757 30.831 13.4766 30.8481 13.4718 30.8623C13.467 30.8766 13.4555 30.8893 13.4372 30.9007C13.2296 31.0404 13.0652 31.1482 12.944 31.2243C12.8804 31.2643 12.8204 31.3012 12.7641 31.3347C12.6572 31.3998 12.5747 31.4514 12.5168 31.4896C12.4598 31.5276 12.4325 31.5498 12.4346 31.5565C12.4368 31.5631 12.4544 31.5684 12.4872 31.5723C12.5211 31.5757 12.5639 31.5795 12.6159 31.5832L12.7478 31.5948L12.7932 31.5985C12.9071 31.6081 12.986 31.6171 13.0301 31.6258C13.0749 31.6341 13.1006 31.6477 13.1069 31.6666C13.1129 31.6846 13.1036 31.7088 13.0788 31.7392C13.0554 31.7703 13.0095 31.8192 12.9411 31.8862C12.9246 31.9033 12.9086 31.9197 12.8927 31.9354C12.8768 31.9512 12.8622 31.966 12.849 31.9801C12.8348 31.9944 12.8195 32.01 12.803 32.0269C12.7853 32.0434 12.768 32.0613 12.7512 32.0806C12.7202 32.1109 12.695 32.1367 12.6756 32.1579C12.6554 32.1793 12.6461 32.1925 12.6476 32.1972C12.6492 32.202 12.6846 32.2006 12.7539 32.1934C12.8232 32.1862 12.9005 32.1778 12.986 32.1685C13.1366 32.149 13.2233 32.1387 13.2459 32.1375C13.4291 32.1177 13.6239 32.0982 13.8305 32.079C13.8488 32.077 13.865 32.0812 13.8789 32.0914C13.8918 32.1019 13.9014 32.1162 13.9074 32.1342C13.9149 32.157 13.9145 32.1777 13.9059 32.1963C13.8977 32.2159 13.8822 32.2294 13.8594 32.2371C13.8518 32.2396 13.845 32.2413 13.839 32.2423C13.6688 32.2536 13.4774 32.2704 13.2644 32.2926L12.9246 32.3313C12.7914 32.3491 12.6639 32.3637 12.5421 32.3746C12.4862 32.3806 12.4487 32.3551 12.4298 32.2981C12.4218 32.2744 12.4235 32.2491 12.4346 32.2222C12.4454 32.1945 12.467 32.1613 12.4997 32.1231C12.5322 32.0848 12.5816 32.0332 12.6474 31.968C12.6807 31.9348 12.7247 31.8943 12.7793 31.8466C12.804 31.8258 12.8259 31.8063 12.8453 31.7884C12.8636 31.7707 12.872 31.7595 12.8705 31.7547C12.8679 31.747 12.8157 31.7407 12.714 31.7356C12.627 31.7308 12.5682 31.7266 12.5375 31.7232C12.4493 31.7146 12.3822 31.7062 12.3363 31.6983C12.2915 31.69 12.2591 31.6797 12.2391 31.6674C12.2192 31.6551 12.2055 31.6375 12.1979 31.6147Z" fill="#FFFAFE"/>
<path d="M13.8631 33.5853C13.8019 33.6376 13.7211 33.6918 13.6204 33.748C13.5202 33.805 13.3908 33.8725 13.2319 33.9505C13.2157 33.9585 13.1992 33.9588 13.1823 33.9516C13.1649 33.9435 13.1511 33.9289 13.1409 33.9084C13.1302 33.8868 13.1274 33.8671 13.132 33.8491C13.1362 33.8304 13.1485 33.816 13.1692 33.8058C13.497 33.6448 13.6981 33.5293 13.7728 33.4593C13.8165 33.4189 13.8432 33.379 13.8529 33.3397C13.8618 33.3009 13.8544 33.2577 13.831 33.21C13.7992 33.1453 13.7535 33.0999 13.6938 33.0735C13.6341 33.0471 13.5694 33.037 13.5 33.0433C13.4296 33.0499 13.3632 33.0687 13.3003 33.0996L12.9058 33.2934C12.8914 33.3004 12.8755 33.2998 12.8581 33.2917C12.8416 33.2832 12.8283 33.2685 12.8182 33.2478C12.808 33.2271 12.8046 33.2076 12.8079 33.1893C12.8125 33.1714 12.8229 33.1585 12.8391 33.1506C13.0968 33.024 13.3407 32.9082 13.5708 32.8029C13.7785 32.7087 13.989 32.6175 14.2021 32.5296C14.247 32.512 14.28 32.5248 14.3013 32.5678C14.3115 32.5885 14.3151 32.6073 14.3122 32.6244C14.3089 32.6427 14.2989 32.655 14.2818 32.661L14.0146 32.7772C13.8499 32.848 13.7302 32.8992 13.6552 32.9304C13.716 32.9385 13.7742 32.9605 13.8298 32.9967C13.8855 33.0328 13.9321 33.0891 13.9695 33.1654C14.0097 33.2472 14.0205 33.3214 14.0022 33.3883C13.9839 33.4552 13.9375 33.5209 13.8633 33.5853H13.8631Z" fill="#FFFAFE"/>
<path d="M13.6841 34.7991C13.6224 34.7033 13.5902 34.6068 13.5872 34.5099C13.584 34.4144 13.6052 34.3271 13.6506 34.248C13.6955 34.1681 13.7583 34.1021 13.8392 34.05C13.9217 33.9971 14.0099 33.9669 14.1041 33.96C14.1969 33.9527 14.286 33.9702 14.3717 34.0127C14.4564 34.0557 14.5275 34.1217 14.5848 34.211C14.6363 34.2909 14.6663 34.3727 14.6748 34.4564C14.6829 34.5392 14.6697 34.6167 14.6351 34.6887C14.6006 34.7609 14.5467 34.8204 14.4737 34.8675C14.4383 34.8902 14.4108 34.902 14.391 34.9028C14.3705 34.9041 14.3492 34.8887 14.3273 34.8564L13.8849 34.199C13.8404 34.2276 13.8036 34.2704 13.7747 34.3269C13.7448 34.3841 13.7304 34.4475 13.7312 34.5173C13.7319 34.5869 13.7532 34.6541 13.7948 34.719C13.8267 34.7687 13.8609 34.8062 13.8974 34.8314C13.9344 34.8575 13.9683 34.8743 13.9994 34.8818C14.0318 34.8896 14.0736 34.8965 14.1251 34.9025C14.1405 34.9044 14.154 34.9142 14.1654 34.9319C14.1752 34.947 14.1785 34.9652 14.1753 34.9862C14.1731 35.0067 14.1644 35.0217 14.1492 35.0315C14.1374 35.039 14.1219 35.0426 14.1024 35.042C14.0268 35.0372 13.9538 35.0198 13.8836 34.9901C13.8134 34.9604 13.7468 34.8966 13.6841 34.7991ZM13.9898 34.1316L14.3981 34.7306C14.4051 34.7415 14.4167 34.7418 14.4326 34.7316C14.5025 34.6868 14.5413 34.6224 14.5494 34.5387C14.5569 34.4543 14.5334 34.3695 14.4786 34.2845C14.4375 34.2206 14.3843 34.1739 14.3192 34.1445C14.2553 34.1154 14.1918 34.1009 14.1288 34.101C14.0664 34.1019 14.0201 34.1121 13.9898 34.1316Z" fill="#FFFAFE"/>
<path d="M15.3964 35.3014C15.4524 35.3707 15.4738 35.4427 15.4609 35.5174C15.4488 35.5915 15.4116 35.6538 15.3495 35.704C15.2904 35.7519 15.2292 35.7717 15.166 35.7634C15.1029 35.7553 15.0487 35.7232 15.0034 35.6673C14.9859 35.6455 14.977 35.6275 14.9772 35.6133C14.9758 35.5989 14.9838 35.5848 15.0009 35.571C15.0289 35.5483 15.0547 35.55 15.0781 35.5759C15.141 35.6409 15.2034 35.6482 15.2658 35.598C15.2992 35.571 15.3205 35.5383 15.3294 35.5002C15.3376 35.4627 15.3255 35.4237 15.2928 35.3833C15.2575 35.3398 15.2088 35.3167 15.1465 35.3143C15.0849 35.3128 15.0192 35.3247 14.9496 35.35C14.88 35.3754 14.8176 35.4078 14.7621 35.4475C14.6575 35.5218 14.5612 35.5944 14.4733 35.6655C14.4289 35.7013 14.3967 35.721 14.3764 35.7244C14.3556 35.7271 14.3356 35.7169 14.3167 35.6935C14.2972 35.6694 14.2891 35.6482 14.2926 35.6302C14.2974 35.6122 14.3137 35.592 14.3416 35.5693L14.649 35.317C14.7198 35.2599 14.8092 35.1786 14.917 35.0734C14.9797 35.0125 15.0255 34.9698 15.0544 34.945C15.0703 34.9296 15.0873 34.9236 15.1054 34.927C15.1236 34.9303 15.1405 34.9417 15.1563 34.9612C15.1833 34.9947 15.1815 35.0257 15.1506 35.0545C15.0879 35.1154 15.0243 35.1727 14.9595 35.2263C15.0462 35.1871 15.1275 35.1741 15.2037 35.1871C15.2806 35.1996 15.3448 35.2377 15.3964 35.3014Z" fill="#FFFAFE"/>
<path d="M15.4388 36.9163C15.3579 36.8359 15.3056 36.7488 15.2819 36.6549C15.2582 36.5623 15.26 36.4725 15.2873 36.3853C15.3138 36.2976 15.3609 36.2196 15.4287 36.1515C15.4977 36.0819 15.5775 36.0336 15.668 36.0063C15.7569 35.9791 15.8478 35.977 15.9405 36C16.0326 36.0237 16.1162 36.0729 16.1915 36.1477C16.259 36.2146 16.3058 36.2881 16.3323 36.3679C16.3581 36.447 16.3619 36.5256 16.3437 36.6034C16.3256 36.6813 16.2858 36.751 16.2246 36.8128C16.1951 36.8427 16.1706 36.8601 16.1516 36.865C16.1318 36.8707 16.1078 36.8602 16.0793 36.8334L15.5055 36.2869C15.4682 36.3246 15.4415 36.3741 15.4254 36.4357C15.4086 36.498 15.4082 36.5631 15.4239 36.631C15.4397 36.6988 15.4749 36.7599 15.5297 36.8142C15.5715 36.8557 15.6131 36.885 15.654 36.9018C15.6959 36.9193 15.7326 36.9283 15.7646 36.9289C15.7979 36.9295 15.8402 36.9273 15.8918 36.9222C15.9074 36.9207 15.9225 36.9274 15.9375 36.9421C15.9503 36.9549 15.9575 36.9718 15.9588 36.993C15.9611 37.0135 15.9558 37.0302 15.9432 37.0429C15.9333 37.0528 15.9189 37.0596 15.8997 37.0632C15.8247 37.0747 15.7499 37.0737 15.6749 37.0597C15.5999 37.0458 15.5211 36.9981 15.4388 36.9163ZM15.5933 36.1986L16.1213 36.6954C16.1306 36.7045 16.1418 36.7024 16.1552 36.6889C16.2137 36.63 16.2378 36.5589 16.2276 36.4753C16.2167 36.3912 16.1754 36.3135 16.1037 36.2424C16.0497 36.1888 15.9878 36.1548 15.9177 36.1402C15.849 36.1257 15.7839 36.1251 15.7226 36.1387C15.6618 36.1531 15.6188 36.1731 15.5933 36.1986Z" fill="#FFFAFE"/>
<path d="M17.817 38.3189L17.7693 38.4188C17.744 38.4741 17.7239 38.5161 17.7092 38.5449C17.6945 38.5737 17.6777 38.6021 17.6586 38.6301C17.5991 38.7179 17.5299 38.7834 17.451 38.8266C17.372 38.8685 17.2886 38.8862 17.201 38.88C17.1134 38.8737 17.0282 38.8427 16.9454 38.7864C16.8842 38.7449 16.8363 38.6931 16.8021 38.6313C16.7666 38.5697 16.7477 38.5067 16.7454 38.4423C16.7432 38.378 16.7591 38.3205 16.7934 38.2701C16.8164 38.2362 16.8491 38.2335 16.8912 38.2622C16.9053 38.2718 16.914 38.282 16.9176 38.2926C16.9206 38.3043 16.9187 38.3187 16.9119 38.336C16.8842 38.4054 16.8809 38.469 16.902 38.5269C16.9224 38.5842 16.9623 38.6331 17.022 38.6735C17.114 38.7357 17.2037 38.7549 17.2911 38.7309C17.3795 38.7075 17.4585 38.6444 17.5283 38.5418C17.5508 38.5086 17.5754 38.4626 17.6021 38.4033C17.5487 38.4251 17.4905 38.4315 17.4276 38.4228C17.3639 38.4134 17.2997 38.3868 17.2352 38.343C17.1507 38.2857 17.0894 38.2158 17.0513 38.1332C17.0139 38.051 16.9998 37.9665 17.0091 37.8798C17.019 37.7922 17.0492 37.7112 17.0996 37.6367C17.1518 37.5597 17.2175 37.4985 17.2967 37.4531C17.3759 37.4076 17.46 37.385 17.5494 37.3851C17.6382 37.386 17.7231 37.4141 17.8043 37.4691C17.8556 37.5039 17.8961 37.5423 17.9256 37.584C17.9553 37.6259 17.9735 37.6649 17.9805 37.701C18.0347 37.6604 18.0656 37.6379 18.0734 37.6335C18.0977 37.6209 18.1193 37.6211 18.1383 37.634C18.1557 37.6458 18.1692 37.6616 18.1787 37.6814C18.1874 37.7006 18.1878 37.7178 18.18 37.733C18.1755 37.7396 18.171 37.7444 18.1665 37.7474C18.1629 37.751 18.1508 37.7609 18.1301 37.7771C18.1103 37.7939 18.0812 37.8189 18.0429 37.8521L17.817 38.3189ZM17.3165 38.2205C17.3529 38.2452 17.3955 38.2626 17.4441 38.2727C17.4923 38.2836 17.5382 38.2863 17.5818 38.2809C17.6249 38.2763 17.6571 38.2643 17.6787 38.2449C17.7099 38.1864 17.7587 38.0852 17.8247 37.9415L17.8704 37.842C17.8748 37.8231 17.8722 37.7985 17.8626 37.7679C17.8532 37.7373 17.8367 37.7055 17.813 37.6727C17.7902 37.6403 17.7614 37.6124 17.7267 37.5887C17.6729 37.5522 17.6157 37.5339 17.5553 37.5341C17.4939 37.5336 17.4354 37.5495 17.3798 37.5818C17.3226 37.6143 17.2739 37.6604 17.2334 37.7201C17.1969 37.7739 17.1737 37.8312 17.1638 37.8923C17.153 37.9527 17.16 38.0118 17.1849 38.0697C17.2097 38.1276 17.2536 38.1779 17.3165 38.2205Z" fill="#FFFAFE"/>
<path d="M18.9794 38.1465C19.0577 38.1886 19.1054 38.2468 19.1223 38.3206C19.1397 38.3937 19.1295 38.4654 19.0916 38.5359C19.0556 38.6028 19.0068 38.6448 18.9455 38.6616C18.8841 38.6785 18.8217 38.6698 18.7583 38.6358C18.7337 38.6224 18.7185 38.6092 18.7131 38.5962C18.7064 38.5834 18.7082 38.5674 18.7187 38.548C18.7358 38.5164 18.7602 38.5078 18.792 38.5227C18.8751 38.5584 18.9356 38.541 18.9735 38.4705C18.9939 38.4327 19.001 38.3943 18.9944 38.3557C18.9875 38.3179 18.9611 38.2867 18.9153 38.262C18.866 38.2354 18.8121 38.233 18.7538 38.2551C18.6963 38.2774 18.6404 38.3139 18.5861 38.364C18.5318 38.4142 18.4866 38.4684 18.4508 38.5264C18.383 38.6353 18.3224 38.7396 18.2688 38.839C18.2418 38.8893 18.2196 38.9199 18.2022 38.931C18.1841 38.9416 18.1617 38.9398 18.1352 38.9256C18.1079 38.9109 18.0923 38.8945 18.0884 38.8765C18.0858 38.8581 18.093 38.833 18.1101 38.8012L18.2961 38.4498C18.3393 38.3697 18.3903 38.2602 18.4491 38.1216C18.4833 38.0412 18.509 37.984 18.5261 37.95C18.5348 37.9297 18.5481 37.9176 18.5661 37.9137C18.5841 37.9098 18.6042 37.9137 18.6263 37.9255C18.6641 37.9459 18.6744 37.9753 18.6572 38.0137C18.623 38.0941 18.5864 38.1715 18.5474 38.2461C18.6122 38.1765 18.6822 38.133 18.7574 38.1154C18.8331 38.0971 18.9071 38.1075 18.9794 38.1465Z" fill="#FFFAFE"/>
<path d="M19.6426 39.6193C19.5369 39.5766 19.455 39.5163 19.3968 39.4389C19.3392 39.3627 19.3062 39.2791 19.2976 39.1882C19.2882 39.097 19.3015 39.0069 19.3377 38.9179C19.3744 38.827 19.4293 38.7516 19.5022 38.6916C19.5738 38.632 19.6569 38.595 19.7512 38.5804C19.8453 38.5668 19.9414 38.5798 20.0397 38.6196C20.1277 38.6553 20.1994 38.7048 20.2546 38.7682C20.3089 38.8312 20.3428 38.9022 20.3562 38.9809C20.3695 39.0597 20.3599 39.1395 20.3272 39.2202C20.3115 39.2592 20.2957 39.2845 20.2801 39.2965C20.2641 39.3094 20.2378 39.3091 20.2012 39.2953L19.4608 39.0132C19.4409 39.0624 19.4355 39.1183 19.4445 39.1813C19.4532 39.2452 19.4778 39.3055 19.5187 39.3619C19.5595 39.4183 19.6156 39.4611 19.6869 39.49C19.7416 39.5122 19.7911 39.523 19.8355 39.5227C19.8808 39.5227 19.9183 39.5169 19.9479 39.5052C19.9788 39.4929 20.017 39.4744 20.0626 39.4497C20.0764 39.4423 20.0931 39.4426 20.1126 39.4504C20.1292 39.4572 20.1424 39.4701 20.1519 39.4891C20.1618 39.5071 20.1634 39.5245 20.1567 39.5412C20.1514 39.5542 20.1406 39.5659 20.1246 39.5767C20.0599 39.6163 19.9903 39.6442 19.9158 39.6604C19.8412 39.6766 19.7502 39.663 19.6426 39.6193ZM19.5076 38.8977L20.1865 39.1518C20.1985 39.1567 20.2081 39.1503 20.2153 39.1327C20.2465 39.0558 20.2413 38.9808 20.1997 38.9079C20.1571 38.8345 20.089 38.7789 19.9954 38.7408C19.9249 38.7123 19.8546 38.7048 19.7842 38.7184C19.7152 38.7315 19.6551 38.7562 19.6036 38.7925C19.5531 38.8293 19.5211 38.8644 19.5076 38.8977Z" fill="#FFFAFE"/>
<path d="M21.0732 40.0833C20.9633 40.0533 20.8748 40.0033 20.8077 39.9333C20.7414 39.8644 20.6987 39.7854 20.6795 39.6961C20.6592 39.6066 20.6618 39.5155 20.6871 39.423C20.7129 39.3285 20.7584 39.247 20.8236 39.1786C20.8877 39.1111 20.9657 39.0645 21.0578 39.0388C21.1496 39.0141 21.2466 39.0156 21.3488 39.0435C21.4404 39.0685 21.5175 39.1092 21.5799 39.1656C21.6413 39.2217 21.6834 39.2881 21.7059 39.3648C21.7286 39.4414 21.7284 39.5218 21.7056 39.6057C21.6945 39.6462 21.6819 39.6733 21.6678 39.6871C21.6534 39.7018 21.6273 39.7045 21.5895 39.6952L20.8208 39.5029C20.8068 39.5541 20.808 39.6103 20.8245 39.6718C20.8407 39.7342 20.8724 39.7911 20.9196 39.8424C20.9669 39.8935 21.0276 39.9294 21.1019 39.9496C21.1589 39.9651 21.2093 39.97 21.2532 39.9645C21.2982 39.9591 21.3347 39.9489 21.3627 39.9336C21.392 39.9177 21.4277 39.8947 21.4701 39.8649C21.4829 39.8559 21.4995 39.8542 21.5198 39.8598C21.5372 39.8646 21.5517 39.8757 21.5634 39.8935C21.5754 39.9103 21.579 39.9273 21.5744 39.9447C21.5706 39.9582 21.5615 39.9712 21.5466 39.9837C21.4872 40.0308 21.4214 40.0666 21.3492 40.0917C21.2771 40.1166 21.1851 40.1139 21.0732 40.0833ZM20.8536 39.3828L21.5579 39.5545C21.5705 39.558 21.5792 39.5505 21.5841 39.5322C21.606 39.4521 21.5919 39.3783 21.5418 39.3106C21.4908 39.2428 21.4166 39.1956 21.3192 39.1692C21.2459 39.1492 21.1751 39.1501 21.107 39.1719C21.0401 39.193 20.9832 39.2247 20.9364 39.267C20.8907 39.3094 20.8631 39.348 20.8536 39.3828Z" fill="#FFFAFE"/>
<path d="M22.7033 39.3212C22.9346 39.3569 23.025 39.5387 22.9743 39.8669L22.9004 40.3473C22.8929 40.3958 22.8639 40.4162 22.8135 40.4084C22.7582 40.3998 22.7341 40.3719 22.7413 40.3244L22.8161 39.8396C22.8347 39.719 22.835 39.6284 22.817 39.5679C22.7981 39.5063 22.7531 39.47 22.682 39.459C22.6068 39.4475 22.5405 39.4671 22.483 39.518C22.4268 39.5681 22.3816 39.638 22.3476 39.7278C22.326 39.7893 22.3082 39.866 22.2939 39.9579L22.2486 40.2621C22.2458 40.2809 22.2365 40.2947 22.2209 40.3034C22.2056 40.3112 22.1865 40.3133 22.1637 40.3098C22.137 40.3058 22.1181 40.2972 22.107 40.2843C22.0949 40.2713 22.0901 40.256 22.0929 40.2381C22.1118 40.1156 22.1318 39.9663 22.1528 39.7904C22.1645 39.6879 22.1763 39.5976 22.1883 39.5196C22.1936 39.486 22.1937 39.4587 22.1889 39.4377C22.185 39.4169 22.1751 39.3866 22.1589 39.3465C22.1543 39.3377 22.1526 39.3279 22.1543 39.317C22.1568 39.3002 22.1686 39.2862 22.1895 39.2754C22.2096 39.2633 22.2285 39.2586 22.2464 39.2613C22.2642 39.264 22.2809 39.2804 22.2966 39.3101C22.3082 39.3341 22.3179 39.3624 22.326 39.3951C22.3341 39.4277 22.3361 39.458 22.3317 39.4856L22.3284 39.5078C22.3637 39.4434 22.4124 39.3927 22.4747 39.3558C22.536 39.3188 22.6122 39.3072 22.7033 39.3212Z" fill="#FFFAFE"/>
<path d="M23.745 40.4858C23.6501 40.481 23.5709 40.4535 23.5074 40.4033C23.4428 40.3539 23.3939 40.2924 23.3604 40.2186C23.3514 40.1991 23.3471 40.1859 23.3474 40.1789C23.3484 40.1589 23.3577 40.1423 23.3754 40.1292C23.3942 40.1151 23.414 40.1087 23.435 40.1097C23.448 40.1103 23.4582 40.1148 23.4657 40.1232C23.4734 40.1306 23.4837 40.1447 23.4968 40.1654C23.5281 40.2191 23.5625 40.2629 23.5998 40.2968C23.6372 40.3296 23.6879 40.3478 23.7518 40.3509C23.8107 40.3539 23.8608 40.3419 23.9024 40.3149C23.9427 40.2879 23.9642 40.2519 23.9663 40.2069C23.9679 40.175 23.9588 40.1475 23.939 40.1244C23.9181 40.1013 23.8925 40.082 23.8622 40.0665C23.8319 40.0509 23.7884 40.0313 23.7315 40.0074C23.6589 39.9777 23.6006 39.9513 23.5566 39.9281C23.5128 39.9038 23.4758 39.8714 23.4459 39.8309C23.4159 39.7893 23.4026 39.738 23.4056 39.6771C23.4083 39.6231 23.4258 39.5739 23.4579 39.5295C23.4902 39.4841 23.5346 39.4493 23.591 39.425C23.6483 39.3998 23.7129 39.389 23.7848 39.3926C23.8568 39.3962 23.9195 39.4133 23.973 39.4442C24.0276 39.474 24.0687 39.5126 24.0963 39.56C24.125 39.6075 24.1379 39.6587 24.1353 39.7136C24.134 39.7415 24.1274 39.7613 24.1158 39.7727C24.1052 39.7851 24.0869 39.7908 24.0609 39.7895C24.033 39.7881 24.0147 39.7817 24.0062 39.7703C23.9976 39.7598 23.9934 39.7461 23.9933 39.729C23.9906 39.6638 23.97 39.6147 23.9316 39.5817C23.8932 39.5487 23.8421 39.5307 23.778 39.5274C23.7032 39.5237 23.6493 39.5385 23.6166 39.572C23.5839 39.6063 23.5665 39.6435 23.5644 39.6836C23.562 39.7305 23.5808 39.768 23.6204 39.7959C23.6591 39.8229 23.7206 39.854 23.805 39.8894C23.8776 39.9191 23.9354 39.9459 23.9783 39.9701C24.0221 39.9944 24.0585 40.0266 24.0875 40.0673C24.1164 40.1078 24.1295 40.157 24.1266 40.2149C24.1221 40.3047 24.0831 40.3739 24.0096 40.4223C23.9372 40.4697 23.849 40.4909 23.745 40.4858Z" fill="#FFFAFE"/>
<path d="M26.3257 39.2343C26.4486 39.2172 26.5404 39.2454 26.601 39.3189C26.6608 39.3935 26.7007 39.5036 26.721 39.6491C26.7529 39.8799 26.7768 40.0554 26.7924 40.1754C26.7949 40.1943 26.7907 40.211 26.7796 40.2257C26.7684 40.2393 26.7508 40.2479 26.7271 40.2512C26.7024 40.2546 26.6827 40.2513 26.6682 40.2411C26.6535 40.23 26.6446 40.2135 26.6416 40.1918L26.571 39.6821C26.5539 39.5592 26.5282 39.4719 26.4937 39.42C26.4594 39.3692 26.4057 39.3489 26.3323 39.3591C26.2639 39.3686 26.2188 39.4137 26.1966 39.4946C26.1745 39.5763 26.1699 39.6695 26.1823 39.7737L26.2044 39.9327L26.2477 40.2464C26.2537 40.29 26.2315 40.3152 26.1811 40.3223C26.1276 40.3296 26.0976 40.3101 26.0911 40.2635L26.0409 39.8903L26.0277 39.7952C26.0133 39.6983 25.9818 39.6137 25.9335 39.5417C25.885 39.4686 25.8276 39.4367 25.7613 39.4458C25.7107 39.4529 25.6722 39.4839 25.6455 39.5391C25.6188 39.5943 25.6021 39.6779 25.5954 39.7899C25.5916 39.858 25.5985 39.9546 25.6158 40.0794L25.6347 40.2162L25.6512 40.335C25.6537 40.3539 25.6485 40.3697 25.6351 40.3827C25.6216 40.3947 25.6045 40.4021 25.5837 40.4051C25.5598 40.4073 25.5406 40.404 25.5262 40.3949C25.512 40.3868 25.5036 40.3733 25.5009 40.3544C25.4817 40.2156 25.4494 39.9939 25.4041 39.6893L25.3932 39.6105C25.3875 39.5769 25.3801 39.5528 25.3711 39.5378C25.3621 39.5238 25.3504 39.5118 25.3357 39.5018C25.3333 39.4991 25.3282 39.4952 25.3206 39.4902C25.314 39.486 25.3101 39.4796 25.3087 39.4707C25.306 39.4509 25.3111 39.4331 25.324 39.417C25.338 39.401 25.3543 39.3917 25.3732 39.3891C25.3831 39.3878 25.3953 39.3911 25.4094 39.3992C25.4238 39.4083 25.4368 39.4191 25.4487 39.4316C25.4662 39.4493 25.4794 39.4682 25.4884 39.4883C25.4982 39.5081 25.5051 39.5324 25.5091 39.561L25.5141 39.5967C25.5261 39.5153 25.5525 39.4511 25.5933 39.404C25.6342 39.3569 25.6873 39.3288 25.7529 39.3198C25.8936 39.3003 25.9972 39.3672 26.064 39.5205C26.0727 39.4376 26.0998 39.3717 26.1456 39.323C26.1903 39.2744 26.2504 39.2448 26.3257 39.2343Z" fill="#FFFAFE"/>
<path d="M27.8208 39.9801C27.711 40.0109 27.6094 40.0133 27.5158 39.9875C27.4236 39.9624 27.3463 39.9165 27.2842 39.8498C27.2209 39.7833 27.1764 39.7038 27.1504 39.6114C27.124 39.5171 27.1213 39.4238 27.1423 39.3318C27.1626 39.2409 27.2056 39.161 27.2713 39.0915C27.3373 39.0231 27.4215 38.9747 27.5236 38.9462C27.6151 38.9205 27.7021 38.916 27.7846 38.9324C27.8661 38.949 27.9363 38.9844 27.9951 39.0386C28.0539 39.0927 28.095 39.1617 28.1184 39.2456C28.1296 39.2861 28.1328 39.3158 28.1278 39.3348C28.123 39.3549 28.102 39.3707 28.0647 39.3821L27.3063 39.6114C27.3205 39.6624 27.3505 39.7101 27.3961 39.7547C27.442 39.8 27.4984 39.8325 27.5653 39.8522C27.6321 39.872 27.7026 39.8714 27.7767 39.8507C27.8335 39.8348 27.8794 39.8132 27.9144 39.7857C27.9502 39.758 27.9763 39.7305 27.9925 39.7031C28.0095 39.6744 28.0284 39.6365 28.0494 39.5889C28.0558 39.5747 28.069 39.5648 28.0893 39.5591C28.1067 39.5543 28.1248 39.5564 28.144 39.5655C28.1629 39.5738 28.1748 39.5865 28.1797 39.6039C28.1835 39.6174 28.1823 39.6333 28.176 39.6516C28.1491 39.7226 28.111 39.7872 28.062 39.8456C28.0129 39.9039 27.9325 39.9488 27.8208 39.9801ZM27.2727 39.4916L27.9654 39.2775C27.9778 39.2741 27.9816 39.2631 27.9765 39.2448C27.9541 39.1649 27.9042 39.1088 27.8265 39.0764C27.7479 39.0443 27.66 39.0419 27.5628 39.0692C27.4896 39.0897 27.4293 39.1268 27.382 39.1806C27.3354 39.2331 27.303 39.2895 27.2844 39.3497C27.2668 39.4097 27.2629 39.4569 27.2727 39.4916Z" fill="#FFFAFE"/>
<path d="M29.2364 39.4725C29.1309 39.516 29.0304 39.5305 28.9346 39.516C28.8401 39.502 28.7579 39.4656 28.6881 39.4068C28.6175 39.3483 28.5638 39.2748 28.5272 39.186C28.4897 39.0954 28.476 39.0031 28.4859 38.9092C28.4952 38.8167 28.5285 38.7321 28.5855 38.6554C28.643 38.5797 28.7207 38.5216 28.8188 38.4811C28.9065 38.4448 28.9925 38.43 29.0762 38.4364C29.1591 38.4433 29.2329 38.4702 29.2979 38.517C29.3627 38.5638 29.4117 38.6274 29.4449 38.7078C29.4609 38.7466 29.4675 38.7757 29.4648 38.7954C29.4624 38.8158 29.4434 38.8339 29.4077 38.8498L28.6818 39.1675C28.7021 39.2166 28.7375 39.2604 28.7882 39.2989C28.8392 39.3385 28.899 39.364 28.9676 39.3757C29.0363 39.3874 29.1062 39.3786 29.1774 39.3492C29.232 39.3267 29.2749 39.2997 29.3063 39.2683C29.3387 39.2365 29.3612 39.2061 29.3741 39.177C29.3874 39.1465 29.4018 39.1065 29.417 39.057C29.4216 39.0421 29.4336 39.0306 29.4531 39.0226C29.4698 39.0157 29.4882 39.0157 29.5083 39.0225C29.5281 39.0283 29.5413 39.0397 29.5482 39.0564C29.5536 39.0693 29.5542 39.0853 29.5502 39.1042C29.5319 39.1779 29.5019 39.2464 29.46 39.3103C29.4182 39.3741 29.3436 39.4282 29.2364 39.4725ZM28.6343 39.0525L29.2967 38.7577C29.3087 38.7528 29.3111 38.7415 29.3037 38.724C29.2721 38.6472 29.2157 38.5974 29.135 38.5746C29.0532 38.5521 28.9656 38.5602 28.8722 38.5987C28.802 38.6278 28.7465 38.6718 28.706 38.7307C28.6659 38.7883 28.6403 38.8482 28.629 38.9101C28.6188 38.9718 28.6205 39.0192 28.6343 39.0525Z" fill="#FFFAFE"/>
<path d="M30.4782 38.4705C30.5001 38.4585 30.5189 38.4552 30.5343 38.4604C30.5489 38.4661 30.5633 38.4823 30.5775 38.5087C30.6119 38.572 30.62 38.6371 30.6018 38.7039C30.5844 38.7703 30.5427 38.8213 30.4767 38.8572C30.3854 38.9068 30.2981 38.9025 30.2151 38.8441C30.1316 38.7847 30.0438 38.6703 29.9516 38.5006C29.9172 38.4373 29.8808 38.3632 29.8425 38.2782C29.828 38.2849 29.7885 38.3025 29.7242 38.3305C29.6853 38.347 29.6562 38.3373 29.6366 38.3013C29.6165 38.2644 29.624 38.2363 29.6592 38.2173C29.6688 38.212 29.6903 38.2021 29.7233 38.1876C29.7519 38.1754 29.7738 38.1652 29.7887 38.1571C29.7474 38.0623 29.7002 37.9411 29.6474 37.7934C29.64 37.7734 29.6387 37.7565 29.6436 37.7425C29.6489 37.7271 29.663 37.7133 29.6858 37.7008C29.7095 37.6879 29.7312 37.684 29.7512 37.6891C29.771 37.6942 29.7851 37.7065 29.7933 37.7259L29.8164 37.7902C29.8749 37.9417 29.9135 38.0409 29.9321 38.0877L30.0806 38.0122C30.099 38.0022 30.1146 37.9983 30.1271 38.0005C30.141 38.0032 30.1529 38.0133 30.1623 38.0308C30.1752 38.0545 30.179 38.073 30.1737 38.0862C30.1692 38.0989 30.1545 38.1126 30.1295 38.1273C30.0926 38.1496 30.0444 38.1769 29.9846 38.2095C30.02 38.2893 30.0551 38.3613 30.09 38.4253C30.1545 38.544 30.2145 38.6314 30.2702 38.6877C30.3249 38.7444 30.3774 38.7592 30.4275 38.7321C30.4539 38.7177 30.4695 38.6962 30.4743 38.6673C30.4787 38.6376 30.4709 38.6014 30.4511 38.5587C30.4424 38.5384 30.4383 38.5218 30.4392 38.5087C30.4415 38.4961 30.4545 38.4834 30.4782 38.4705Z" fill="#FFFAFE"/>
<path d="M32.1957 37.6947C32.1197 37.755 32.0378 37.7949 31.95 37.8147C31.863 37.8337 31.7759 37.8268 31.6886 37.794C31.5999 37.7608 31.5185 37.6977 31.4447 37.6044C31.3776 37.5196 31.3368 37.4328 31.3223 37.3434C31.3085 37.2535 31.32 37.1665 31.3568 37.0825C31.3943 36.9993 31.4553 36.9241 31.5401 36.8571C31.6013 36.8086 31.662 36.7752 31.7226 36.7566C31.7832 36.738 31.838 36.7323 31.8869 36.7393L31.8599 36.7051C31.7292 36.5305 31.634 36.403 31.5743 36.3228C31.5159 36.2427 31.4592 36.1606 31.4042 36.0766C31.3941 36.0591 31.3908 36.0412 31.3944 36.0231C31.3973 36.0042 31.4075 35.988 31.4246 35.9743C31.4442 35.9589 31.4642 35.9518 31.4847 35.9535C31.5045 35.9544 31.5206 35.9634 31.5329 35.9805C31.5878 36.0658 31.6887 36.2079 31.8359 36.4065C31.9824 36.6043 32.1171 36.7809 32.24 36.9363C32.366 37.0954 32.4419 37.1841 32.4675 37.2019C32.4938 37.2207 32.5179 37.2342 32.5398 37.2423C32.5608 37.2511 32.5769 37.2513 32.5878 37.2426C32.591 37.24 32.5971 37.2447 32.6066 37.2565C32.6196 37.273 32.6244 37.2934 32.6207 37.3179C32.6165 37.3416 32.6058 37.3603 32.5886 37.374C32.5769 37.3833 32.5644 37.3887 32.5515 37.39C32.529 37.3938 32.5022 37.3921 32.471 37.3849C32.4392 37.377 32.4062 37.3572 32.3721 37.3254C32.3802 37.3903 32.3684 37.4559 32.3364 37.522C32.3054 37.5874 32.2584 37.645 32.1957 37.6947ZM32.1036 37.5858C32.1507 37.5486 32.1872 37.5036 32.2133 37.4511C32.2386 37.3978 32.2511 37.3434 32.2505 37.2877C32.2497 37.2336 32.2331 37.186 32.2008 37.1452C32.1629 37.0974 32.1332 37.0591 32.1116 37.0303L32.0069 36.8931C31.9607 36.8734 31.9016 36.868 31.8293 36.8767C31.7568 36.8868 31.6893 36.9168 31.6266 36.9664C31.5365 37.0378 31.4858 37.122 31.4745 37.219C31.4631 37.3174 31.4955 37.4148 31.5719 37.5112C31.6271 37.581 31.6872 37.6272 31.7523 37.6497C31.8174 37.6722 31.8806 37.6764 31.9421 37.6621C32.0036 37.6479 32.0574 37.6225 32.1036 37.5858Z" fill="#FFFAFE"/>
<path d="M32.5668 35.9152C32.6303 35.8528 32.6999 35.8245 32.7755 35.83C32.8505 35.835 32.9159 35.8659 32.972 35.923C33.0252 35.9772 33.0509 36.0361 33.0491 36.0997C33.0471 36.1633 33.0204 36.2205 32.969 36.2709C32.949 36.2905 32.9319 36.301 32.9178 36.3024C32.9037 36.3051 32.8889 36.2986 32.8734 36.2829C32.8482 36.2572 32.8473 36.2314 32.8709 36.2053C32.9295 36.1365 32.9307 36.0736 32.8746 36.0166C32.8445 35.986 32.81 35.968 32.7711 35.9626C32.733 35.9581 32.6954 35.974 32.6583 36.0105C32.6184 36.0498 32.6003 36.1005 32.6039 36.1627C32.6082 36.2242 32.6265 36.2884 32.6585 36.3553C32.6904 36.4221 32.7288 36.4812 32.7737 36.5323C32.8577 36.6292 32.9394 36.718 33.0186 36.7987C33.0585 36.8394 33.0813 36.8697 33.0867 36.8895C33.0915 36.91 33.0831 36.9309 33.0618 36.9519C33.0398 36.9736 33.0195 36.9837 33.0011 36.982C32.9828 36.979 32.9609 36.9648 32.9357 36.9391L32.6549 36.6576C32.5911 36.5926 32.5016 36.5116 32.3864 36.4144C32.3196 36.358 32.2727 36.3165 32.2454 36.2902C32.2286 36.276 32.2209 36.2596 32.2224 36.2412C32.2239 36.2227 32.2337 36.2049 32.2515 36.1873C32.2821 36.1572 32.3133 36.156 32.3448 36.1839C32.4116 36.2403 32.4747 36.2982 32.5344 36.3574C32.487 36.2749 32.4662 36.1953 32.4717 36.1182C32.4767 36.0405 32.5083 35.9728 32.5668 35.9152Z" fill="#FFFAFE"/>
<path d="M34.1699 35.7165C34.0977 35.8048 34.0161 35.8653 33.9249 35.898C33.8351 35.9305 33.7455 35.9374 33.6561 35.9187C33.5661 35.9008 33.4839 35.8614 33.4097 35.8008C33.3338 35.7388 33.2778 35.6641 33.242 35.5767C33.2063 35.4907 33.1953 35.4004 33.2093 35.3059C33.224 35.212 33.2648 35.124 33.332 35.0419C33.3921 34.9683 33.4605 34.9144 33.5373 34.8804C33.6135 34.8471 33.6914 34.8357 33.7706 34.8462C33.8498 34.8567 33.9231 34.8894 33.9906 34.9444C34.0232 34.971 34.0428 34.9935 34.0497 35.0121C34.0574 35.0313 34.0493 35.0562 34.0253 35.0871L33.537 35.7111C33.5781 35.7447 33.63 35.7664 33.6929 35.7763C33.7565 35.787 33.8213 35.7811 33.8874 35.7589C33.9534 35.7366 34.0107 35.6956 34.0595 35.6359C34.0968 35.5902 34.1219 35.5461 34.1346 35.5036C34.148 35.4603 34.1535 35.4228 34.151 35.391C34.1483 35.3578 34.142 35.3158 34.1318 35.265C34.1288 35.2497 34.134 35.2338 34.1472 35.2176C34.1586 35.2036 34.1748 35.1949 34.1958 35.1913C34.2161 35.1871 34.233 35.1907 34.247 35.2021C34.2578 35.211 34.266 35.2248 34.2714 35.2434C34.2902 35.3169 34.2963 35.3916 34.2899 35.4676C34.2833 35.5437 34.2434 35.6266 34.1699 35.7165ZM33.4406 35.6323L33.8838 35.0587C33.8921 35.0487 33.8888 35.0376 33.8741 35.0256C33.8097 34.9731 33.7365 34.956 33.6545 34.9741C33.5718 34.9932 33.4985 35.0418 33.4347 35.1201C33.3866 35.179 33.3587 35.244 33.351 35.3151C33.3431 35.3848 33.3489 35.4496 33.3684 35.5095C33.3887 35.5686 33.4127 35.6095 33.4406 35.6323Z" fill="#FFFAFE"/>
<path d="M35.154 34.0302C35.1668 34.0158 35.1792 34.0065 35.1912 34.0023C35.2034 33.9981 35.2187 34.002 35.2373 34.0137C35.255 34.025 35.2664 34.0388 35.2715 34.055C35.2763 34.0698 35.2739 34.0848 35.2643 34.1001C35.2337 34.1483 35.2037 34.1789 35.174 34.1921C35.1443 34.2053 35.1033 34.2065 35.0508 34.1958C35.1024 34.3031 35.0856 34.424 35.0004 34.5582C34.9404 34.6529 34.871 34.7166 34.7921 34.7495C34.7129 34.781 34.6328 34.7888 34.5516 34.7729C34.4705 34.757 34.3937 34.7259 34.3209 34.6799C34.2423 34.6301 34.1786 34.5671 34.1298 34.4912C34.0803 34.416 34.0541 34.3341 34.0509 34.2456C34.0487 34.1577 34.0745 34.0712 34.1286 33.9858C34.1655 33.9275 34.2093 33.8837 34.26 33.8543C34.311 33.8262 34.3653 33.8133 34.4232 33.8156L34.3697 33.771C34.3277 33.7421 34.3187 33.7085 34.3428 33.6704C34.3572 33.6476 34.374 33.6333 34.3931 33.6276C34.4121 33.6219 34.4283 33.6252 34.442 33.6374L34.4831 33.6705C34.5267 33.71 34.5741 33.7484 34.6251 33.7856C34.667 33.8168 34.7253 33.8562 34.8006 33.9039L34.9223 33.981C34.9721 34.0127 35.01 34.0349 35.0361 34.0479C35.0613 34.0604 35.0835 34.0656 35.1027 34.0635C35.1221 34.0628 35.1392 34.0517 35.154 34.0302ZM34.8345 34.1138C34.7807 34.0773 34.7103 34.0314 34.6233 33.9762C34.5668 33.9404 34.5122 33.9236 34.4598 33.9258C34.4088 33.9278 34.3647 33.9413 34.3275 33.9663C34.2899 33.9921 34.2611 34.0208 34.2413 34.052C34.2017 34.1145 34.1864 34.1777 34.1957 34.2416C34.2041 34.3049 34.2282 34.3629 34.2683 34.4156C34.3092 34.4687 34.3554 34.5117 34.407 34.5443C34.4889 34.5962 34.5753 34.6226 34.6661 34.6233C34.7568 34.6241 34.8314 34.5783 34.8897 34.4862C34.9337 34.4169 34.9517 34.3484 34.9437 34.2806C34.9371 34.2125 34.9008 34.1568 34.8345 34.1138Z" fill="#FFFAFE"/>
<path d="M34.9845 32.2434C35.0366 32.1308 35.1098 32.0688 35.2043 32.0574C35.2992 32.0474 35.4135 32.073 35.547 32.1347C35.7587 32.2323 35.9192 32.307 36.0285 32.3588C36.0458 32.3667 36.0576 32.3793 36.0639 32.3966C36.0693 32.4134 36.0671 32.4327 36.057 32.4546C36.0465 32.4773 36.0332 32.4921 36.0168 32.4987C35.9996 32.505 35.981 32.5037 35.9609 32.4945L35.4938 32.2787C35.3811 32.2266 35.2938 32.2011 35.2316 32.2023C35.1704 32.2038 35.1242 32.2382 35.0931 32.3052C35.0642 32.3679 35.0778 32.4303 35.1338 32.4926C35.1908 32.5553 35.2665 32.6096 35.361 32.6555L35.5068 32.7227L35.7942 32.8554C35.8341 32.8739 35.8434 32.9063 35.8221 32.9526C35.7995 33.0017 35.7668 33.0164 35.724 32.9966L35.3828 32.8373L35.2956 32.7971C35.2062 32.7569 35.1182 32.7377 35.0313 32.7395C34.9436 32.7408 34.8858 32.772 34.8578 32.8328C34.8363 32.8791 34.8417 32.9283 34.8737 32.9807C34.9058 33.0329 34.9671 33.0921 35.0579 33.1583C35.1132 33.1982 35.1981 33.2445 35.3126 33.2973L35.4378 33.3552L35.5469 33.4055C35.5641 33.4134 35.5746 33.4265 35.5782 33.4448C35.5811 33.4626 35.5781 33.4811 35.5692 33.5001C35.5583 33.5214 35.5451 33.5358 35.5296 33.543C35.5151 33.5507 35.4992 33.5505 35.4819 33.5424C35.3547 33.4838 35.1507 33.3911 34.8698 33.2648L34.7976 33.2315C34.7663 33.2181 34.742 33.2112 34.7244 33.2109C34.7079 33.2109 34.6914 33.2144 34.6751 33.2211C34.6715 33.2217 34.6655 33.2238 34.6572 33.2277C34.6502 33.231 34.6425 33.2309 34.6343 33.2271C34.6161 33.2187 34.6038 33.2048 34.5975 33.1853C34.5915 33.1649 34.5926 33.146 34.6004 33.1287C34.6046 33.1196 34.6139 33.1113 34.6286 33.1037C34.644 33.0965 34.6602 33.0912 34.677 33.0881C34.7015 33.0828 34.7244 33.0819 34.746 33.0854C34.7681 33.0878 34.7922 33.0951 34.8186 33.1073L34.8513 33.1223C34.7892 33.0683 34.7495 33.0113 34.7319 32.9516C34.7144 32.8917 34.7195 32.8319 34.7471 32.7717C34.8066 32.6427 34.919 32.5916 35.084 32.6184C35.0189 32.5662 34.9781 32.5079 34.9617 32.4429C34.9449 32.379 34.9526 32.3126 34.9845 32.2434Z" fill="#FFFAFE"/>
<path d="M36.3785 31.5442C36.3497 31.6348 36.3029 31.7044 36.2381 31.753C36.1739 31.803 36.1019 31.8346 36.0221 31.8481C36.0009 31.8519 35.987 31.8528 35.9804 31.8507C35.9613 31.8447 35.9477 31.8313 35.9394 31.8108C35.9306 31.789 35.9294 31.7682 35.9358 31.7482C35.9397 31.7358 35.9468 31.7271 35.9568 31.7218C35.966 31.7163 35.9822 31.71 36.0054 31.7026C36.0653 31.686 36.1164 31.6639 36.1587 31.6365C36.2001 31.6087 36.2304 31.5643 36.2498 31.5033C36.2676 31.447 36.2688 31.3954 36.2534 31.3486C36.2376 31.3027 36.2082 31.2729 36.1653 31.2592C36.1349 31.2495 36.1059 31.2514 36.0785 31.2646C36.0509 31.2789 36.0257 31.2987 36.003 31.324C35.9802 31.3494 35.9501 31.3864 35.9124 31.4355C35.8652 31.4982 35.8248 31.5477 35.7911 31.5841C35.7564 31.6204 35.7158 31.6479 35.669 31.6666C35.6211 31.6851 35.5682 31.6849 35.51 31.6663C35.4585 31.65 35.4153 31.6206 35.3807 31.578C35.345 31.5351 35.3226 31.4835 35.3135 31.4229C35.3037 31.3611 35.3099 31.2958 35.3316 31.2271C35.3534 31.1584 35.3861 31.1022 35.4294 31.0582C35.4722 31.0131 35.52 30.9831 35.5728 30.9685C35.6261 30.9529 35.6789 30.9535 35.7314 30.97C35.7581 30.9786 35.7755 30.9898 35.7836 31.0039C35.7929 31.0174 35.7936 31.0365 35.7858 31.0614C35.7773 31.0881 35.7665 31.104 35.7533 31.1092C35.741 31.1148 35.7266 31.1154 35.7101 31.1113C35.6463 31.0974 35.5935 31.1047 35.552 31.1334C35.5103 31.1622 35.4798 31.207 35.4603 31.2681C35.4375 31.3396 35.4383 31.3954 35.4621 31.4355C35.487 31.476 35.5185 31.5022 35.5568 31.5144C35.6016 31.5286 35.6426 31.5201 35.6798 31.4889C35.7158 31.4583 35.7615 31.4068 35.8172 31.3342C35.8644 31.2715 35.9052 31.2226 35.9394 31.1874C35.9741 31.1511 36.0146 31.1242 36.0612 31.1064C36.1077 31.0887 36.1587 31.0885 36.2139 31.1062C36.2997 31.1335 36.3566 31.1889 36.3846 31.2723C36.4121 31.3545 36.41 31.4451 36.3785 31.5442Z" fill="#FFFAFE"/>
</g>
</g>
</g>
</g>
</g>
</g>
</g>
</g>
<defs>
<clipPath id="clip0_167_5">
<rect width="48" height="54" fill="white"/>
</clipPath>
<clipPath id="clip1_167_5">
<rect width="48" height="54" fill="white"/>
</clipPath>
<clipPath id="clip2_167_5">
<rect width="48" height="54" fill="white"/>
</clipPath>
<clipPath id="clip3_167_5">
<rect width="26.973" height="26.973" fill="white" transform="translate(10.5135 13.5135)"/>
</clipPath>
<clipPath id="clip4_167_5">
<rect width="26.973" height="26.973" fill="white" transform="translate(10.5135 13.5135)"/>
</clipPath>
<clipPath id="clip5_167_5">
<rect width="26.973" height="26.973" fill="white" transform="translate(10.5135 13.5135)"/>
</clipPath>
<clipPath id="clip6_167_5">
<rect width="26.973" height="26.973" fill="white" transform="translate(10.5135 13.5135)"/>
</clipPath>
<clipPath id="clip7_167_5">
<rect width="26.973" height="26.973" fill="white" transform="translate(10.5135 13.5135)"/>
</clipPath>
<clipPath id="clip8_167_5">
<rect width="15.894" height="15.894" fill="white" transform="translate(16.053 19.053)"/>
</clipPath>
<clipPath id="clip9_167_5">
<rect width="11.1258" height="11.1258" fill="white" transform="translate(18.4371 21.4371)"/>
</clipPath>
</defs>
</svg>
